<svg width="534" height="52" viewBox="0 0 534 52" fill="none" xmlns="http://www.w3.org/2000/svg">
<path d="M18.292 4.8916L19.625 4.68652C17.8477 4.52702 16.1273 5.02832 14.4639 6.19043C13.1195 7.10189 11.832 8.37793 10.6016 10.0186C9.5306 11.4769 8.61914 13.0492 7.86719 14.7354C7.09245 16.4443 6.5 18.1419 6.08984 19.8281C6.91016 17.8685 7.65072 16.2507 8.31152 14.9746C9.26855 13.1517 10.2028 11.6364 11.1143 10.4287C12.2536 8.87923 13.4727 7.60319 14.7715 6.60059C14.9082 6.48665 15.0791 6.36133 15.2842 6.22461L15.8311 5.84863L16.1387 5.71191L16.4463 5.54102C16.6742 5.42708 16.8678 5.34733 17.0273 5.30176C17.2096 5.21061 17.4147 5.13086 17.6426 5.0625L18.292 4.8916ZM30.1182 6.46387C33.9691 9.81348 36.9997 14.3936 39.21 20.2041C41.6937 26.6755 42.8558 32.6683 42.6963 38.1826C42.6279 40.6436 42.2861 42.7513 41.6709 44.5059C41.0329 46.2376 40.1784 47.4567 39.1074 48.1631C37.4212 49.2568 35.6097 49.2568 33.6729 48.1631C31.5765 47.001 29.7422 44.7793 28.1699 41.498C27.5547 40.2448 26.8939 38.6383 26.1875 36.6787L25.7432 35.5166L25.333 34.3545C25.014 33.4886 24.752 32.7936 24.5469 32.2695C23.9772 30.834 23.4417 29.7972 22.9404 29.1592C22.348 28.4072 21.71 28.0996 21.0264 28.2363C20.1605 28.3958 19.3971 29.7744 18.7363 32.3721C18.554 33.124 18.2806 34.4115 17.916 36.2344L17.7109 37.2939L17.4717 38.3535C17.3122 39.1738 17.1527 39.903 16.9932 40.541C16.1501 44.0273 15.1475 46.5908 13.9854 48.2314C12.4587 50.4189 10.4762 51.3076 8.03809 50.8975C6.46582 50.6468 5.12142 49.6442 4.00488 47.8896C2.97949 46.249 2.21615 44.0843 1.71484 41.3955C0.71224 35.904 0.917318 29.9681 2.33008 23.5879C3.58333 17.9368 5.59993 13.1289 8.37988 9.16406C11.3193 4.97135 14.5208 2.63574 17.9844 2.15723C22.1087 1.61035 26.1533 3.0459 30.1182 6.46387ZM69.2539 36.8496L69.7666 36.6787C71.2933 36.2002 72.6491 35.8356 73.834 35.585C73.2188 35.471 72.501 35.471 71.6807 35.585C71.0426 35.6533 70.3363 35.8128 69.5615 36.0635C69.2881 36.1318 68.9463 36.2572 68.5361 36.4395L68.0576 36.6104L67.5791 36.8154C66.9183 37.0433 66.2347 37.2256 65.5283 37.3623C66.1891 37.499 66.9183 37.4762 67.7158 37.2939C67.9893 37.2484 68.3311 37.1572 68.7412 37.0205L69.2539 36.8496ZM56.5391 6.22461C57.3822 5.74609 58.3278 5.37012 59.376 5.09668C60.2419 4.84603 61.2673 4.67513 62.4521 4.58398C61.4495 4.51562 60.4014 4.58398 59.3076 4.78906C58.2139 4.99414 57.2113 5.32454 56.2998 5.78027C55.3656 6.236 54.4769 6.83984 53.6338 7.5918C52.9502 8.2526 52.3008 9.11849 51.6855 10.1895C50.7741 11.8757 50.0791 13.8695 49.6006 16.1709C49.1904 18.1533 48.9626 20.2383 48.917 22.4258L49.1562 20.8535C49.2474 20.2611 49.3385 19.7484 49.4297 19.3154C49.612 18.2445 49.8285 17.2305 50.0791 16.2734C50.7171 13.9036 51.4463 11.9782 52.2666 10.4971C52.8135 9.51725 53.4173 8.70833 54.0781 8.07031C54.7389 7.40951 55.5592 6.79427 56.5391 6.22461ZM65.9385 23.2461L65.665 23.3486L65.1523 23.5195L64.6055 23.6904C64.9473 23.8044 65.3346 23.8499 65.7676 23.8271C65.9271 23.8271 66.1208 23.8044 66.3486 23.7588L66.5879 23.7246L66.8613 23.6904C67.1803 23.6449 67.5221 23.6107 67.8867 23.5879C68.3197 23.5879 68.6729 23.6221 68.9463 23.6904C68.7412 23.3942 68.4108 23.1891 67.9551 23.0752C67.6133 22.984 67.2145 22.9727 66.7588 23.041C66.5993 23.0638 66.4056 23.1094 66.1777 23.1777L65.9385 23.2461ZM64.4688 34.5254C65.2891 34.8444 66.2917 34.776 67.4766 34.3203C71.3503 32.862 74.3809 32.5544 76.5684 33.3975C78.6419 34.195 79.6673 35.904 79.6445 38.5244C79.6217 40.484 78.6647 42.4437 76.7734 44.4033C74.9961 46.249 72.7061 47.7757 69.9033 48.9834C67.0322 50.2367 64.1953 50.9089 61.3926 51C58.3164 51.0911 55.7188 50.4531 53.5996 49.0859C51.4577 47.696 49.7145 45.0186 48.3701 41.0537C47.1169 37.3623 46.3877 33.1468 46.1826 28.4072C46.0003 23.6449 46.3877 19.2812 47.3447 15.3164C48.3701 11.0098 49.9424 7.86523 52.0615 5.88281C54.3174 3.74089 57.0745 2.46484 60.333 2.05469C63.2041 1.71289 66.0638 2.05469 68.9121 3.08008C71.6237 4.08268 73.6631 5.46126 75.0303 7.21582C76.5114 9.06152 76.8532 10.8844 76.0557 12.6846C75.5771 13.7327 74.7682 14.4961 73.6289 14.9746C72.7858 15.3164 71.6123 15.5443 70.1084 15.6582L69.1514 15.7266L68.2285 15.7607C67.4766 15.8063 66.8727 15.8633 66.417 15.9316C65.0954 16.0911 64.1156 16.4102 63.4775 16.8887C63.0446 17.2077 62.7484 17.6406 62.5889 18.1875C62.4521 18.7116 62.4635 19.2243 62.623 19.7256C63.056 20.9105 64.0244 21.3092 65.5283 20.9219C67.3057 20.4661 68.8324 20.5915 70.1084 21.2979C71.3617 21.9814 72.0339 23.0296 72.125 24.4424C72.2161 25.9691 71.7148 27.2223 70.6211 28.2021C69.459 29.2731 67.6589 29.9225 65.2207 30.1504C64.3776 30.2415 63.7624 30.5947 63.375 31.21C62.9876 31.8024 62.8965 32.429 63.1016 33.0898C63.3066 33.7962 63.7624 34.2747 64.4688 34.5254ZM91.2656 5.98535C92.2682 5.68913 93.5671 5.42708 95.1621 5.19922C96.347 5.01693 97.68 4.85742 99.1611 4.7207C96.3128 4.44727 93.624 4.65234 91.0947 5.33594C89.5225 5.81445 88.2806 6.38411 87.3691 7.04492C86.7083 7.54622 86.2298 8.05892 85.9336 8.58301C85.569 9.22103 85.4665 9.89323 85.626 10.5996C85.626 9.84766 85.8197 9.23242 86.207 8.75391C86.5033 8.34375 86.9818 7.9222 87.6426 7.48926C88.554 6.89681 89.7617 6.39551 91.2656 5.98535ZM88.0869 3.96875C91.5732 2.46484 96.0964 1.861 101.656 2.15723C108.059 2.49902 113.277 3.72949 117.311 5.84863C119.293 6.9196 120.729 8.10449 121.617 9.40332C122.551 10.7933 122.791 12.263 122.335 13.8125C121.97 15.043 121.23 15.9202 120.113 16.4443C119.27 16.8545 118.108 17.071 116.627 17.0938L115.704 17.1279L114.781 17.0938C113.961 17.0938 113.368 17.0938 113.004 17.0938C111.728 17.1393 110.839 17.3558 110.338 17.7432C109.609 18.3356 109.267 20.4434 109.312 24.0664C109.335 27.4616 109.7 31.5518 110.406 36.3369C111.728 45.4059 109.939 50.2708 105.04 50.9316C102.351 51.2734 100.05 50.4303 98.1357 48.4023C96.29 46.4883 95.2191 43.9818 94.9229 40.8828C94.7406 38.832 94.7178 36.4281 94.8545 33.6709C94.9456 31.734 95.1507 29.387 95.4697 26.6299C96.0622 21.2067 96.2673 18.2445 96.085 17.7432C95.766 16.9001 94.9115 16.3304 93.5215 16.0342C93.0202 15.9202 92.3366 15.8291 91.4707 15.7607L90.377 15.6582L89.249 15.5557C87.4033 15.3506 86.0247 14.9746 85.1133 14.4277C83.8372 13.6758 83.1309 12.4681 82.9941 10.8047C82.7435 7.84245 84.4411 5.5638 88.0869 3.96875ZM155.011 6.25879C155.284 5.89421 155.58 5.64355 155.899 5.50684C156.196 5.37012 156.594 5.26758 157.096 5.19922C156.594 5.17643 156.184 5.22201 155.865 5.33594C155.478 5.44987 155.113 5.67773 154.771 6.01953C154.293 6.54362 153.906 7.31836 153.609 8.34375C153.29 9.61979 153.142 11.2832 153.165 13.334V13.9834L153.199 14.5986C153.199 15.0771 153.188 15.4759 153.165 15.7949C153.119 16.5924 152.96 17.3786 152.687 18.1533C152.094 19.7712 151.023 20.9447 149.474 21.6738C150.271 21.446 151 21.0358 151.661 20.4434C152.276 19.8737 152.766 19.1787 153.131 18.3584C153.473 17.6292 153.689 16.7975 153.78 15.8633C153.826 15.4987 153.837 15.0658 153.814 14.5645V13.9492V13.334C153.769 11.3743 153.871 9.74512 154.122 8.44629C154.327 7.48926 154.623 6.76009 155.011 6.25879ZM131.017 9.47168C131.45 8.24121 132.065 7.20443 132.862 6.36133C133.774 5.35872 134.833 4.80046 136.041 4.68652C135.449 4.61816 134.822 4.69792 134.161 4.92578C133.546 5.15365 132.988 5.50684 132.486 5.98535C131.575 6.80566 130.88 7.89941 130.401 9.2666C129.581 11.682 129.137 14.1771 129.068 16.752L129.513 14.9062L129.957 13.0947C130.322 11.7048 130.675 10.4971 131.017 9.47168ZM152.037 5.71191C152.994 3.75228 154.635 2.7041 156.959 2.56738C160.217 2.40788 162.804 4.58398 164.718 9.0957C166.563 13.4251 167.384 18.8369 167.179 25.3311C166.928 33.762 166.21 39.8005 165.025 43.4463C163.408 48.4821 160.582 51 156.549 51C154.156 51 152.322 50.0771 151.046 48.2314C149.633 46.249 149.029 43.3779 149.234 39.6182C149.326 37.3851 149.007 35.7559 148.277 34.7305C147.708 33.9557 146.91 33.5684 145.885 33.5684C143.788 33.5684 142.9 35.6761 143.219 39.8916C143.652 45.6566 141.681 48.8581 137.306 49.4961C135.346 49.7695 133.557 49.234 131.939 47.8896C129.957 46.249 128.521 43.5488 127.633 39.7891C126.425 34.7305 125.855 29.3984 125.924 23.793C125.992 17.9824 126.744 12.9466 128.18 8.68555C128.909 6.47526 130.071 4.76628 131.666 3.55859C133.307 2.30534 135.152 1.83822 137.203 2.15723C139.755 2.5446 141.578 3.63835 142.672 5.43848C143.902 7.46647 144.301 10.4857 143.868 14.4961C143.731 15.9089 143.948 17.0596 144.518 17.9482C145.087 18.8141 145.93 19.2926 147.047 19.3838C148.163 19.4749 149.063 19.1445 149.747 18.3926C150.567 17.5267 150.943 16.2279 150.875 14.4961C150.693 10.5312 151.08 7.60319 152.037 5.71191ZM195.514 10.0186C196.152 9.06152 196.767 8.24121 197.359 7.55762C198.043 6.76009 198.806 6.0765 199.649 5.50684C198.123 6.28158 196.607 7.69434 195.104 9.74512C193.964 11.2946 192.973 13.1289 192.13 15.248C191.811 16.0228 191.458 17.0026 191.07 18.1875L190.558 19.6572L190.079 21.127C189.646 22.3574 189.202 23.2575 188.746 23.8271C188.404 24.2829 188.028 24.6133 187.618 24.8184C187.231 25.0007 186.729 25.1032 186.114 25.126C186.729 25.1943 187.254 25.1374 187.687 24.9551C188.165 24.7956 188.598 24.4993 188.985 24.0664C189.487 23.474 190.011 22.5511 190.558 21.2979C190.831 20.6598 191.196 19.6914 191.651 18.3926L192.198 16.9229L192.745 15.4873C193.52 13.5277 194.443 11.7048 195.514 10.0186ZM173.878 20.4434C174.129 18.5065 174.413 16.8431 174.732 15.4531L174.801 15.1455L174.869 14.8379L175.04 14.1543C175.154 13.6074 175.279 13.1175 175.416 12.6846C175.735 11.4997 176.1 10.4743 176.51 9.6084C177.604 7.26139 179.028 6.00814 180.782 5.84863C179.347 5.75749 178.071 6.47526 176.954 8.00195C176.544 8.57161 176.145 9.2666 175.758 10.0869C175.484 10.7021 175.222 11.3971 174.972 12.1719C173.627 16.0684 173.058 20.5003 173.263 25.4678L173.57 22.9727L173.878 20.4434ZM197.633 3.62695C200.504 1.66732 203.329 1.5306 206.109 3.2168C208.342 4.58398 210.131 7.86523 211.476 13.0605C212.729 17.8685 213.355 23.2461 213.355 29.1934C213.333 35.2773 212.672 40.3132 211.373 44.3008C209.892 48.7441 207.841 50.9772 205.221 51C201.142 51.0228 199.16 48.2542 199.273 42.6943C199.296 41.8057 199.376 40.7689 199.513 39.584C199.558 39.1966 199.615 38.7181 199.684 38.1484L199.786 37.499L199.854 36.8496C200.082 35.0495 200.048 34.1038 199.752 34.0127C199.456 33.9443 199.228 34.0241 199.068 34.252C198.954 34.3887 198.715 34.8786 198.351 35.7217C198.146 36.223 197.94 36.6673 197.735 37.0547C197.462 37.6699 197.166 38.2852 196.847 38.9004C195.981 40.5182 194.933 42.2728 193.702 44.1641C192.312 46.3288 190.615 48.015 188.609 49.2227C186.49 50.4987 184.36 51 182.218 50.7266C174.881 49.724 171.007 42.6829 170.597 29.6035C170.369 22.4941 171.075 16.4671 172.716 11.5225C174.425 6.41829 176.738 3.67253 179.654 3.28516C182.047 2.96615 183.801 3.61556 184.918 5.2334C186.308 7.28418 186.638 10.8161 185.909 15.8291C185.522 18.5635 185.351 20.318 185.396 21.0928C185.419 21.9587 185.727 22.4144 186.319 22.46C186.638 22.4827 186.957 22.1637 187.276 21.5029C187.527 21.0244 187.869 20.1585 188.302 18.9053L188.473 18.4951L188.609 18.085L188.917 17.1963C189.168 16.4671 189.396 15.8291 189.601 15.2822C190.17 13.7783 190.751 12.4567 191.344 11.3174C193.167 7.78548 195.263 5.22201 197.633 3.62695ZM239.947 36.8496L240.46 36.6787C241.987 36.2002 243.342 35.8356 244.527 35.585C243.912 35.471 243.194 35.471 242.374 35.585C241.736 35.6533 241.03 35.8128 240.255 36.0635C239.981 36.1318 239.64 36.2572 239.229 36.4395L238.751 36.6104L238.272 36.8154C237.612 37.0433 236.928 37.2256 236.222 37.3623C236.882 37.499 237.612 37.4762 238.409 37.2939C238.683 37.2484 239.024 37.1572 239.435 37.0205L239.947 36.8496ZM227.232 6.22461C228.076 5.74609 229.021 5.37012 230.069 5.09668C230.935 4.84603 231.961 4.67513 233.146 4.58398C232.143 4.51562 231.095 4.58398 230.001 4.78906C228.907 4.99414 227.905 5.32454 226.993 5.78027C226.059 6.236 225.17 6.83984 224.327 7.5918C223.644 8.2526 222.994 9.11849 222.379 10.1895C221.467 11.8757 220.772 13.8695 220.294 16.1709C219.884 18.1533 219.656 20.2383 219.61 22.4258L219.85 20.8535C219.941 20.2611 220.032 19.7484 220.123 19.3154C220.305 18.2445 220.522 17.2305 220.772 16.2734C221.41 13.9036 222.14 11.9782 222.96 10.4971C223.507 9.51725 224.111 8.70833 224.771 8.07031C225.432 7.40951 226.253 6.79427 227.232 6.22461ZM236.632 23.2461L236.358 23.3486L235.846 23.5195L235.299 23.6904C235.641 23.8044 236.028 23.8499 236.461 23.8271C236.62 23.8271 236.814 23.8044 237.042 23.7588L237.281 23.7246L237.555 23.6904C237.874 23.6449 238.215 23.6107 238.58 23.5879C239.013 23.5879 239.366 23.6221 239.64 23.6904C239.435 23.3942 239.104 23.1891 238.648 23.0752C238.307 22.984 237.908 22.9727 237.452 23.041C237.293 23.0638 237.099 23.1094 236.871 23.1777L236.632 23.2461ZM235.162 34.5254C235.982 34.8444 236.985 34.776 238.17 34.3203C242.044 32.862 245.074 32.5544 247.262 33.3975C249.335 34.195 250.361 35.904 250.338 38.5244C250.315 40.484 249.358 42.4437 247.467 44.4033C245.689 46.249 243.399 47.7757 240.597 48.9834C237.726 50.2367 234.889 50.9089 232.086 51C229.01 51.0911 226.412 50.4531 224.293 49.0859C222.151 47.696 220.408 45.0186 219.063 41.0537C217.81 37.3623 217.081 33.1468 216.876 28.4072C216.694 23.6449 217.081 19.2812 218.038 15.3164C219.063 11.0098 220.636 7.86523 222.755 5.88281C225.011 3.74089 227.768 2.46484 231.026 2.05469C233.897 1.71289 236.757 2.05469 239.605 3.08008C242.317 4.08268 244.356 5.46126 245.724 7.21582C247.205 9.06152 247.547 10.8844 246.749 12.6846C246.271 13.7327 245.462 14.4961 244.322 14.9746C243.479 15.3164 242.306 15.5443 240.802 15.6582L239.845 15.7266L238.922 15.7607C238.17 15.8063 237.566 15.8633 237.11 15.9316C235.789 16.0911 234.809 16.4102 234.171 16.8887C233.738 17.2077 233.442 17.6406 233.282 18.1875C233.146 18.7116 233.157 19.2243 233.316 19.7256C233.749 20.9105 234.718 21.3092 236.222 20.9219C237.999 20.4661 239.526 20.5915 240.802 21.2979C242.055 21.9814 242.727 23.0296 242.818 24.4424C242.91 25.9691 242.408 27.2223 241.314 28.2021C240.152 29.2731 238.352 29.9225 235.914 30.1504C235.071 30.2415 234.456 30.5947 234.068 31.21C233.681 31.8024 233.59 32.429 233.795 33.0898C234 33.7962 234.456 34.2747 235.162 34.5254ZM295.387 32.2695C295.66 32.0417 295.899 31.8708 296.104 31.7568C296.674 31.415 297.244 31.1872 297.813 31.0732C297.221 30.9365 296.583 31.0163 295.899 31.3125C295.649 31.4036 295.353 31.5518 295.011 31.7568L294.635 32.0303L294.259 32.3037C293.211 33.0101 292.105 33.4772 290.943 33.7051C291.536 33.8418 292.174 33.819 292.857 33.6367C293.427 33.5 294.02 33.2266 294.635 32.8164L295.011 32.543L295.387 32.2695ZM273.204 13.4023C274.138 11.7389 275.198 10.3034 276.383 9.0957C277.613 7.79688 279.049 6.7487 280.689 5.95117C282.193 5.29036 283.937 4.88021 285.919 4.7207C285.099 4.65234 284.187 4.68652 283.185 4.82324C282.319 4.93717 281.419 5.16504 280.484 5.50684C278.798 6.19043 277.271 7.23861 275.904 8.65137C274.605 9.99577 273.557 11.4997 272.76 13.1631C271.939 14.8493 271.358 16.5924 271.017 18.3926C271.677 16.4557 272.407 14.7923 273.204 13.4023ZM299.693 28.749C301.926 29.6377 303.202 31.848 303.521 35.3799C303.886 39.2536 302.656 42.6715 299.83 45.6338C296.868 48.7555 292.914 50.5215 287.97 50.9316C285.053 51.1823 282.33 50.8291 279.801 49.8721C277.271 48.915 275.084 47.4111 273.238 45.3604C269.273 41.0309 267.291 35.0267 267.291 27.3477C267.291 20.5801 268.738 14.9062 271.632 10.3262C274.298 6.13346 277.659 3.5472 281.715 2.56738C284.882 1.79264 288.004 1.88379 291.08 2.84082C294.43 3.86621 297.141 5.76888 299.215 8.54883C300.172 9.84766 300.753 11.2035 300.958 12.6162C301.163 13.915 301.026 15.0999 300.548 16.1709C300.069 17.1963 299.363 17.9255 298.429 18.3584C297.449 18.8141 296.378 18.8369 295.216 18.4268C292.573 17.4697 290.51 17.1051 289.029 17.333C287.001 17.652 285.805 19.0534 285.44 21.5371C285.19 23.2461 285.27 24.8411 285.68 26.3223C286.067 27.6667 286.682 28.7718 287.525 29.6377C288.368 30.4808 289.291 30.9479 290.294 31.0391C291.365 31.153 292.39 30.834 293.37 30.082C294.373 29.3073 295.432 28.7946 296.549 28.5439C297.665 28.2933 298.714 28.3617 299.693 28.749ZM327.105 15.624C327.994 14.8493 328.894 13.8809 329.806 12.7188C330.284 12.1035 330.683 11.568 331.002 11.1123L331.275 10.7021L331.549 10.292C331.754 9.9502 331.936 9.68815 332.096 9.50586C333.007 8.29818 334.055 7.64876 335.24 7.55762C334.625 7.48926 333.976 7.61458 333.292 7.93359C332.7 8.22982 332.164 8.63997 331.686 9.16406C331.503 9.36914 331.298 9.64258 331.07 9.98438L330.797 10.3604L330.489 10.7705C330.125 11.2718 329.737 11.7845 329.327 12.3086C328.484 13.3796 327.63 14.3594 326.764 15.248C325.647 16.3646 324.656 17.1963 323.79 17.7432C324.861 17.333 325.966 16.6266 327.105 15.624ZM315.04 6.42969C315.45 5.92839 315.883 5.52962 316.339 5.2334C316.817 4.91439 317.364 4.70931 317.979 4.61816C317.41 4.57259 316.806 4.68652 316.168 4.95996C315.621 5.2334 315.12 5.60938 314.664 6.08789C313.958 6.81706 313.308 7.86523 312.716 9.23242C312.26 10.2806 311.884 11.4427 311.588 12.7188C311.337 13.7214 311.155 14.929 311.041 16.3418L311.554 14.5986L312.066 12.8555C312.545 11.3971 312.955 10.2692 313.297 9.47168C313.867 8.17285 314.448 7.15885 315.04 6.42969ZM331.036 23.6904C330.558 24.1006 330.774 24.5563 331.686 25.0576C336.721 27.8376 340.253 31.4378 342.281 35.8584C343.215 37.9548 343.66 39.9941 343.614 41.9766C343.569 44.0501 342.988 45.9072 341.871 47.5479C340.868 49.0062 339.638 50.0202 338.18 50.5898C336.721 51.1139 335.24 51.1367 333.736 50.6582C332.164 50.1341 330.751 49.0973 329.498 47.5479C328.154 45.8389 327.128 43.6514 326.422 40.9854C325.328 36.8382 324.155 34.2292 322.901 33.1582C322.423 32.748 322.047 32.6569 321.773 32.8848C321.523 33.1126 321.443 33.5342 321.534 34.1494V34.252L321.568 34.3887L321.603 34.6963C321.648 34.9697 321.682 35.2432 321.705 35.5166C321.796 36.223 321.876 36.9294 321.944 37.6357C322.104 39.6637 322.092 41.4867 321.91 43.1045C321.363 47.9124 319.415 50.3734 316.065 50.4873C312.42 50.624 309.89 47.9694 308.478 42.5234C307.293 38.0345 306.951 32.11 307.452 24.75C307.953 17.4128 309.059 11.8415 310.768 8.03613C312.887 3.27376 315.895 1.34831 319.791 2.25977C321.682 2.71549 322.89 3.83203 323.414 5.60938C324.029 7.7513 323.517 10.5312 321.876 13.9492C321.466 14.7923 321.397 15.3278 321.671 15.5557C321.944 15.7607 322.457 15.624 323.209 15.1455C325.1 13.9834 327.083 11.8301 329.156 8.68555C330.387 6.83984 331.868 5.67773 333.6 5.19922C335.149 4.76628 336.653 4.92578 338.111 5.67773C339.547 6.42969 340.572 7.56901 341.188 9.0957C341.848 10.7591 341.882 12.5137 341.29 14.3594C340.652 16.3418 339.547 18.0508 337.975 19.4863C336.926 20.4661 335.548 21.3776 333.839 22.2207C333.611 22.3346 333.303 22.4714 332.916 22.6309L332.506 22.8359L332.13 23.041C331.583 23.2917 331.218 23.5081 331.036 23.6904ZM372.086 10.0186C372.724 9.06152 373.339 8.24121 373.932 7.55762C374.615 6.76009 375.379 6.0765 376.222 5.50684C374.695 6.28158 373.18 7.69434 371.676 9.74512C370.536 11.2946 369.545 13.1289 368.702 15.248C368.383 16.0228 368.03 17.0026 367.643 18.1875L367.13 19.6572L366.651 21.127C366.218 22.3574 365.774 23.2575 365.318 23.8271C364.977 24.2829 364.601 24.6133 364.19 24.8184C363.803 25.0007 363.302 25.1032 362.687 25.126C363.302 25.1943 363.826 25.1374 364.259 24.9551C364.737 24.7956 365.17 24.4993 365.558 24.0664C366.059 23.474 366.583 22.5511 367.13 21.2979C367.403 20.6598 367.768 19.6914 368.224 18.3926L368.771 16.9229L369.317 15.4873C370.092 13.5277 371.015 11.7048 372.086 10.0186ZM350.45 20.4434C350.701 18.5065 350.986 16.8431 351.305 15.4531L351.373 15.1455L351.441 14.8379L351.612 14.1543C351.726 13.6074 351.852 13.1175 351.988 12.6846C352.307 11.4997 352.672 10.4743 353.082 9.6084C354.176 7.26139 355.6 6.00814 357.354 5.84863C355.919 5.75749 354.643 6.47526 353.526 8.00195C353.116 8.57161 352.717 9.2666 352.33 10.0869C352.057 10.7021 351.795 11.3971 351.544 12.1719C350.2 16.0684 349.63 20.5003 349.835 25.4678L350.143 22.9727L350.45 20.4434ZM374.205 3.62695C377.076 1.66732 379.902 1.5306 382.682 3.2168C384.915 4.58398 386.703 7.86523 388.048 13.0605C389.301 17.8685 389.928 23.2461 389.928 29.1934C389.905 35.2773 389.244 40.3132 387.945 44.3008C386.464 48.7441 384.413 50.9772 381.793 51C377.714 51.0228 375.732 48.2542 375.846 42.6943C375.868 41.8057 375.948 40.7689 376.085 39.584C376.131 39.1966 376.188 38.7181 376.256 38.1484L376.358 37.499L376.427 36.8496C376.655 35.0495 376.62 34.1038 376.324 34.0127C376.028 33.9443 375.8 34.0241 375.641 34.252C375.527 34.3887 375.287 34.8786 374.923 35.7217C374.718 36.223 374.513 36.6673 374.308 37.0547C374.034 37.6699 373.738 38.2852 373.419 38.9004C372.553 40.5182 371.505 42.2728 370.274 44.1641C368.884 46.3288 367.187 48.015 365.182 49.2227C363.062 50.4987 360.932 51 358.79 50.7266C351.453 49.724 347.579 42.6829 347.169 29.6035C346.941 22.4941 347.647 16.4671 349.288 11.5225C350.997 6.41829 353.31 3.67253 356.227 3.28516C358.619 2.96615 360.374 3.61556 361.49 5.2334C362.88 7.28418 363.211 10.8161 362.481 15.8291C362.094 18.5635 361.923 20.318 361.969 21.0928C361.992 21.9587 362.299 22.4144 362.892 22.46C363.211 22.4827 363.53 22.1637 363.849 21.5029C364.099 21.0244 364.441 20.1585 364.874 18.9053L365.045 18.4951L365.182 18.085L365.489 17.1963C365.74 16.4671 365.968 15.8291 366.173 15.2822C366.743 13.7783 367.324 12.4567 367.916 11.3174C369.739 7.78548 371.835 5.22201 374.205 3.62695ZM425.372 35.9268C426.01 35.4255 426.432 34.776 426.637 33.9785C426.819 33.2493 426.819 32.4974 426.637 31.7227C426.5 32.6113 426.329 33.3063 426.124 33.8076C425.851 34.4684 425.463 35.0039 424.962 35.4141C424.506 35.7786 423.891 36.0863 423.116 36.3369C422.615 36.4964 421.92 36.6673 421.031 36.8496C421.76 36.9863 422.501 36.9863 423.253 36.8496C424.073 36.6901 424.78 36.3825 425.372 35.9268ZM418.399 29.2275C417.67 31.0049 417.522 32.2923 417.955 33.0898C418.365 33.7962 419.345 34.1608 420.895 34.1836C422.444 34.2064 423.39 33.9443 423.731 33.3975C423.959 33.0329 424.05 32.4632 424.005 31.6885C423.959 30.9593 423.8 30.2074 423.526 29.4326C422.866 27.5186 421.988 26.5501 420.895 26.5273C419.983 26.5046 419.151 27.4046 418.399 29.2275ZM410.675 15.624C411.495 13.9378 412.384 12.3997 413.341 11.0098C414.412 9.4375 415.551 8.10449 416.759 7.01074C418.285 5.64355 419.835 4.86882 421.407 4.68652C420.564 4.66374 419.687 4.83464 418.775 5.19922C417.932 5.58659 417.146 6.05371 416.417 6.60059C415.164 7.60319 413.956 8.94759 412.794 10.6338C411.723 12.2288 410.857 13.8239 410.196 15.4189C409.49 17.1507 408.943 18.8597 408.556 20.5459C409.33 18.5863 410.037 16.9456 410.675 15.624ZM396.935 38.627C397.276 38.3307 397.721 38.0459 398.268 37.7725C398.609 37.5674 399.088 37.3395 399.703 37.0889L400.489 36.7471L401.241 36.4053C400.102 36.3825 399.008 36.6445 397.96 37.1914C397.345 37.5104 396.889 37.8636 396.593 38.251C396.16 38.7751 395.989 39.3333 396.08 39.9258C396.24 39.4017 396.524 38.9688 396.935 38.627ZM437.848 32.6113C438.258 33.0898 438.919 33.4544 439.83 33.7051C443.066 34.6165 445.299 36.109 446.529 38.1826C447.783 40.3245 447.703 42.626 446.29 45.0869C444.786 47.7301 441.414 49.4733 436.173 50.3164C432.641 50.8861 427.582 51.0911 420.997 50.9316C413.774 50.7266 407.747 49.9176 402.916 48.5049C397.516 46.9098 394.439 44.7451 393.688 42.0107C393.141 40.0739 393.403 38.4219 394.474 37.0547C395.659 35.528 397.732 34.457 400.694 33.8418C401.743 33.6139 402.494 33.2266 402.95 32.6797C403.36 32.2012 403.679 31.4036 403.907 30.2871C403.976 29.9225 404.067 29.3187 404.181 28.4756L404.283 27.9629L404.352 27.3818C404.42 26.9489 404.488 26.5501 404.557 26.1855C404.921 24.0208 405.411 21.8903 406.026 19.7939C407.576 14.5303 409.809 10.235 412.726 6.9082C415.619 3.60417 418.57 1.98633 421.578 2.05469C425.087 2.14583 428.129 3.90039 430.704 7.31836C433.438 11.0098 435.296 16.2279 436.275 22.9727C436.412 23.793 436.515 24.6247 436.583 25.4678C436.651 26.0602 436.708 26.7552 436.754 27.5527C436.868 29.1478 436.97 30.1846 437.062 30.6631C437.198 31.529 437.46 32.1784 437.848 32.6113ZM470.592 15.624C471.48 14.8493 472.381 13.8809 473.292 12.7188C473.771 12.1035 474.169 11.568 474.488 11.1123L474.762 10.7021L475.035 10.292C475.24 9.9502 475.423 9.68815 475.582 9.50586C476.493 8.29818 477.542 7.64876 478.727 7.55762C478.111 7.48926 477.462 7.61458 476.778 7.93359C476.186 8.22982 475.65 8.63997 475.172 9.16406C474.99 9.36914 474.785 9.64258 474.557 9.98438L474.283 10.3604L473.976 10.7705C473.611 11.2718 473.224 11.7845 472.813 12.3086C471.97 13.3796 471.116 14.3594 470.25 15.248C469.133 16.3646 468.142 17.1963 467.276 17.7432C468.347 17.333 469.452 16.6266 470.592 15.624ZM458.526 6.42969C458.937 5.92839 459.369 5.52962 459.825 5.2334C460.304 4.91439 460.851 4.70931 461.466 4.61816C460.896 4.57259 460.292 4.68652 459.654 4.95996C459.107 5.2334 458.606 5.60938 458.15 6.08789C457.444 6.81706 456.795 7.86523 456.202 9.23242C455.746 10.2806 455.37 11.4427 455.074 12.7188C454.824 13.7214 454.641 14.929 454.527 16.3418L455.04 14.5986L455.553 12.8555C456.031 11.3971 456.441 10.2692 456.783 9.47168C457.353 8.17285 457.934 7.15885 458.526 6.42969ZM474.522 23.6904C474.044 24.1006 474.26 24.5563 475.172 25.0576C480.208 27.8376 483.74 31.4378 485.768 35.8584C486.702 37.9548 487.146 39.9941 487.101 41.9766C487.055 44.0501 486.474 45.9072 485.357 47.5479C484.355 49.0062 483.124 50.0202 481.666 50.5898C480.208 51.1139 478.727 51.1367 477.223 50.6582C475.65 50.1341 474.238 49.0973 472.984 47.5479C471.64 45.8389 470.615 43.6514 469.908 40.9854C468.814 36.8382 467.641 34.2292 466.388 33.1582C465.909 32.748 465.533 32.6569 465.26 32.8848C465.009 33.1126 464.929 33.5342 465.021 34.1494V34.252L465.055 34.3887L465.089 34.6963C465.134 34.9697 465.169 35.2432 465.191 35.5166C465.283 36.223 465.362 36.9294 465.431 37.6357C465.59 39.6637 465.579 41.4867 465.396 43.1045C464.85 47.9124 462.901 50.3734 459.552 50.4873C455.906 50.624 453.377 47.9694 451.964 42.5234C450.779 38.0345 450.437 32.11 450.938 24.75C451.44 17.4128 452.545 11.8415 454.254 8.03613C456.373 3.27376 459.381 1.34831 463.277 2.25977C465.169 2.71549 466.376 3.83203 466.9 5.60938C467.516 7.7513 467.003 10.5312 465.362 13.9492C464.952 14.7923 464.884 15.3278 465.157 15.5557C465.431 15.7607 465.943 15.624 466.695 15.1455C468.587 13.9834 470.569 11.8301 472.643 8.68555C473.873 6.83984 475.354 5.67773 477.086 5.19922C478.635 4.76628 480.139 4.92578 481.598 5.67773C483.033 6.42969 484.059 7.56901 484.674 9.0957C485.335 10.7591 485.369 12.5137 484.776 14.3594C484.138 16.3418 483.033 18.0508 481.461 19.4863C480.413 20.4661 479.034 21.3776 477.325 22.2207C477.097 22.3346 476.79 22.4714 476.402 22.6309L475.992 22.8359L475.616 23.041C475.069 23.2917 474.705 23.5081 474.522 23.6904ZM515.572 10.0186C516.21 9.06152 516.826 8.24121 517.418 7.55762C518.102 6.76009 518.865 6.0765 519.708 5.50684C518.181 6.28158 516.666 7.69434 515.162 9.74512C514.023 11.2946 513.032 13.1289 512.188 15.248C511.869 16.0228 511.516 17.0026 511.129 18.1875L510.616 19.6572L510.138 21.127C509.705 22.3574 509.26 23.2575 508.805 23.8271C508.463 24.2829 508.087 24.6133 507.677 24.8184C507.289 25.0007 506.788 25.1032 506.173 25.126C506.788 25.1943 507.312 25.1374 507.745 24.9551C508.224 24.7956 508.657 24.4993 509.044 24.0664C509.545 23.474 510.069 22.5511 510.616 21.2979C510.89 20.6598 511.254 19.6914 511.71 18.3926L512.257 16.9229L512.804 15.4873C513.578 13.5277 514.501 11.7048 515.572 10.0186ZM493.937 20.4434C494.187 18.5065 494.472 16.8431 494.791 15.4531L494.859 15.1455L494.928 14.8379L495.099 14.1543C495.213 13.6074 495.338 13.1175 495.475 12.6846C495.794 11.4997 496.158 10.4743 496.568 9.6084C497.662 7.26139 499.086 6.00814 500.841 5.84863C499.405 5.75749 498.129 6.47526 497.013 8.00195C496.603 8.57161 496.204 9.2666 495.816 10.0869C495.543 10.7021 495.281 11.3971 495.03 12.1719C493.686 16.0684 493.116 20.5003 493.321 25.4678L493.629 22.9727L493.937 20.4434ZM517.691 3.62695C520.562 1.66732 523.388 1.5306 526.168 3.2168C528.401 4.58398 530.19 7.86523 531.534 13.0605C532.787 17.8685 533.414 23.2461 533.414 29.1934C533.391 35.2773 532.73 40.3132 531.432 44.3008C529.951 48.7441 527.9 50.9772 525.279 51C521.201 51.0228 519.218 48.2542 519.332 42.6943C519.355 41.8057 519.435 40.7689 519.571 39.584C519.617 39.1966 519.674 38.7181 519.742 38.1484L519.845 37.499L519.913 36.8496C520.141 35.0495 520.107 34.1038 519.811 34.0127C519.514 33.9443 519.286 34.0241 519.127 34.252C519.013 34.3887 518.774 34.8786 518.409 35.7217C518.204 36.223 517.999 36.6673 517.794 37.0547C517.521 37.6699 517.224 38.2852 516.905 38.9004C516.039 40.5182 514.991 42.2728 513.761 44.1641C512.371 46.3288 510.673 48.015 508.668 49.2227C506.549 50.4987 504.418 51 502.276 50.7266C494.939 49.724 491.065 42.6829 490.655 29.6035C490.427 22.4941 491.134 16.4671 492.774 11.5225C494.483 6.41829 496.796 3.67253 499.713 3.28516C502.105 2.96615 503.86 3.61556 504.977 5.2334C506.367 7.28418 506.697 10.8161 505.968 15.8291C505.58 18.5635 505.41 20.318 505.455 21.0928C505.478 21.9587 505.785 22.4144 506.378 22.46C506.697 22.4827 507.016 22.1637 507.335 21.5029C507.586 21.0244 507.927 20.1585 508.36 18.9053L508.531 18.4951L508.668 18.085L508.976 17.1963C509.226 16.4671 509.454 15.8291 509.659 15.2822C510.229 13.7783 510.81 12.4567 511.402 11.3174C513.225 7.78548 515.322 5.22201 517.691 3.62695Z" fill="url(#paint0_linear_3_20)"/>
<path d="M18.292 4.8916L19.625 4.68652C17.8477 4.52702 16.1273 5.02832 14.4639 6.19043C13.1195 7.10189 11.832 8.37793 10.6016 10.0186C9.5306 11.4769 8.61914 13.0492 7.86719 14.7354C7.09245 16.4443 6.5 18.1419 6.08984 19.8281C6.91016 17.8685 7.65072 16.2507 8.31152 14.9746C9.26855 13.1517 10.2028 11.6364 11.1143 10.4287C12.2536 8.87923 13.4727 7.60319 14.7715 6.60059C14.9082 6.48665 15.0791 6.36133 15.2842 6.22461L15.8311 5.84863L16.1387 5.71191L16.4463 5.54102C16.6742 5.42708 16.8678 5.34733 17.0273 5.30176C17.2096 5.21061 17.4147 5.13086 17.6426 5.0625L18.292 4.8916ZM30.1182 6.46387C33.9691 9.81348 36.9997 14.3936 39.21 20.2041C41.6937 26.6755 42.8558 32.6683 42.6963 38.1826C42.6279 40.6436 42.2861 42.7513 41.6709 44.5059C41.0329 46.2376 40.1784 47.4567 39.1074 48.1631C37.4212 49.2568 35.6097 49.2568 33.6729 48.1631C31.5765 47.001 29.7422 44.7793 28.1699 41.498C27.5547 40.2448 26.8939 38.6383 26.1875 36.6787L25.7432 35.5166L25.333 34.3545C25.014 33.4886 24.752 32.7936 24.5469 32.2695C23.9772 30.834 23.4417 29.7972 22.9404 29.1592C22.348 28.4072 21.71 28.0996 21.0264 28.2363C20.1605 28.3958 19.3971 29.7744 18.7363 32.3721C18.554 33.124 18.2806 34.4115 17.916 36.2344L17.7109 37.2939L17.4717 38.3535C17.3122 39.1738 17.1527 39.903 16.9932 40.541C16.1501 44.0273 15.1475 46.5908 13.9854 48.2314C12.4587 50.4189 10.4762 51.3076 8.03809 50.8975C6.46582 50.6468 5.12142 49.6442 4.00488 47.8896C2.97949 46.249 2.21615 44.0843 1.71484 41.3955C0.71224 35.904 0.917318 29.9681 2.33008 23.5879C3.58333 17.9368 5.59993 13.1289 8.37988 9.16406C11.3193 4.97135 14.5208 2.63574 17.9844 2.15723C22.1087 1.61035 26.1533 3.0459 30.1182 6.46387ZM69.2539 36.8496L69.7666 36.6787C71.2933 36.2002 72.6491 35.8356 73.834 35.585C73.2188 35.471 72.501 35.471 71.6807 35.585C71.0426 35.6533 70.3363 35.8128 69.5615 36.0635C69.2881 36.1318 68.9463 36.2572 68.5361 36.4395L68.0576 36.6104L67.5791 36.8154C66.9183 37.0433 66.2347 37.2256 65.5283 37.3623C66.1891 37.499 66.9183 37.4762 67.7158 37.2939C67.9893 37.2484 68.3311 37.1572 68.7412 37.0205L69.2539 36.8496ZM56.5391 6.22461C57.3822 5.74609 58.3278 5.37012 59.376 5.09668C60.2419 4.84603 61.2673 4.67513 62.4521 4.58398C61.4495 4.51562 60.4014 4.58398 59.3076 4.78906C58.2139 4.99414 57.2113 5.32454 56.2998 5.78027C55.3656 6.236 54.4769 6.83984 53.6338 7.5918C52.9502 8.2526 52.3008 9.11849 51.6855 10.1895C50.7741 11.8757 50.0791 13.8695 49.6006 16.1709C49.1904 18.1533 48.9626 20.2383 48.917 22.4258L49.1562 20.8535C49.2474 20.2611 49.3385 19.7484 49.4297 19.3154C49.612 18.2445 49.8285 17.2305 50.0791 16.2734C50.7171 13.9036 51.4463 11.9782 52.2666 10.4971C52.8135 9.51725 53.4173 8.70833 54.0781 8.07031C54.7389 7.40951 55.5592 6.79427 56.5391 6.22461ZM65.9385 23.2461L65.665 23.3486L65.1523 23.5195L64.6055 23.6904C64.9473 23.8044 65.3346 23.8499 65.7676 23.8271C65.9271 23.8271 66.1208 23.8044 66.3486 23.7588L66.5879 23.7246L66.8613 23.6904C67.1803 23.6449 67.5221 23.6107 67.8867 23.5879C68.3197 23.5879 68.6729 23.6221 68.9463 23.6904C68.7412 23.3942 68.4108 23.1891 67.9551 23.0752C67.6133 22.984 67.2145 22.9727 66.7588 23.041C66.5993 23.0638 66.4056 23.1094 66.1777 23.1777L65.9385 23.2461ZM64.4688 34.5254C65.2891 34.8444 66.2917 34.776 67.4766 34.3203C71.3503 32.862 74.3809 32.5544 76.5684 33.3975C78.6419 34.195 79.6673 35.904 79.6445 38.5244C79.6217 40.484 78.6647 42.4437 76.7734 44.4033C74.9961 46.249 72.7061 47.7757 69.9033 48.9834C67.0322 50.2367 64.1953 50.9089 61.3926 51C58.3164 51.0911 55.7188 50.4531 53.5996 49.0859C51.4577 47.696 49.7145 45.0186 48.3701 41.0537C47.1169 37.3623 46.3877 33.1468 46.1826 28.4072C46.0003 23.6449 46.3877 19.2812 47.3447 15.3164C48.3701 11.0098 49.9424 7.86523 52.0615 5.88281C54.3174 3.74089 57.0745 2.46484 60.333 2.05469C63.2041 1.71289 66.0638 2.05469 68.9121 3.08008C71.6237 4.08268 73.6631 5.46126 75.0303 7.21582C76.5114 9.06152 76.8532 10.8844 76.0557 12.6846C75.5771 13.7327 74.7682 14.4961 73.6289 14.9746C72.7858 15.3164 71.6123 15.5443 70.1084 15.6582L69.1514 15.7266L68.2285 15.7607C67.4766 15.8063 66.8727 15.8633 66.417 15.9316C65.0954 16.0911 64.1156 16.4102 63.4775 16.8887C63.0446 17.2077 62.7484 17.6406 62.5889 18.1875C62.4521 18.7116 62.4635 19.2243 62.623 19.7256C63.056 20.9105 64.0244 21.3092 65.5283 20.9219C67.3057 20.4661 68.8324 20.5915 70.1084 21.2979C71.3617 21.9814 72.0339 23.0296 72.125 24.4424C72.2161 25.9691 71.7148 27.2223 70.6211 28.2021C69.459 29.2731 67.6589 29.9225 65.2207 30.1504C64.3776 30.2415 63.7624 30.5947 63.375 31.21C62.9876 31.8024 62.8965 32.429 63.1016 33.0898C63.3066 33.7962 63.7624 34.2747 64.4688 34.5254ZM91.2656 5.98535C92.2682 5.68913 93.5671 5.42708 95.1621 5.19922C96.347 5.01693 97.68 4.85742 99.1611 4.7207C96.3128 4.44727 93.624 4.65234 91.0947 5.33594C89.5225 5.81445 88.2806 6.38411 87.3691 7.04492C86.7083 7.54622 86.2298 8.05892 85.9336 8.58301C85.569 9.22103 85.4665 9.89323 85.626 10.5996C85.626 9.84766 85.8197 9.23242 86.207 8.75391C86.5033 8.34375 86.9818 7.9222 87.6426 7.48926C88.554 6.89681 89.7617 6.39551 91.2656 5.98535ZM88.0869 3.96875C91.5732 2.46484 96.0964 1.861 101.656 2.15723C108.059 2.49902 113.277 3.72949 117.311 5.84863C119.293 6.9196 120.729 8.10449 121.617 9.40332C122.551 10.7933 122.791 12.263 122.335 13.8125C121.97 15.043 121.23 15.9202 120.113 16.4443C119.27 16.8545 118.108 17.071 116.627 17.0938L115.704 17.1279L114.781 17.0938C113.961 17.0938 113.368 17.0938 113.004 17.0938C111.728 17.1393 110.839 17.3558 110.338 17.7432C109.609 18.3356 109.267 20.4434 109.312 24.0664C109.335 27.4616 109.7 31.5518 110.406 36.3369C111.728 45.4059 109.939 50.2708 105.04 50.9316C102.351 51.2734 100.05 50.4303 98.1357 48.4023C96.29 46.4883 95.2191 43.9818 94.9229 40.8828C94.7406 38.832 94.7178 36.4281 94.8545 33.6709C94.9456 31.734 95.1507 29.387 95.4697 26.6299C96.0622 21.2067 96.2673 18.2445 96.085 17.7432C95.766 16.9001 94.9115 16.3304 93.5215 16.0342C93.0202 15.9202 92.3366 15.8291 91.4707 15.7607L90.377 15.6582L89.249 15.5557C87.4033 15.3506 86.0247 14.9746 85.1133 14.4277C83.8372 13.6758 83.1309 12.4681 82.9941 10.8047C82.7435 7.84245 84.4411 5.5638 88.0869 3.96875ZM155.011 6.25879C155.284 5.89421 155.58 5.64355 155.899 5.50684C156.196 5.37012 156.594 5.26758 157.096 5.19922C156.594 5.17643 156.184 5.22201 155.865 5.33594C155.478 5.44987 155.113 5.67773 154.771 6.01953C154.293 6.54362 153.906 7.31836 153.609 8.34375C153.29 9.61979 153.142 11.2832 153.165 13.334V13.9834L153.199 14.5986C153.199 15.0771 153.188 15.4759 153.165 15.7949C153.119 16.5924 152.96 17.3786 152.687 18.1533C152.094 19.7712 151.023 20.9447 149.474 21.6738C150.271 21.446 151 21.0358 151.661 20.4434C152.276 19.8737 152.766 19.1787 153.131 18.3584C153.473 17.6292 153.689 16.7975 153.78 15.8633C153.826 15.4987 153.837 15.0658 153.814 14.5645V13.9492V13.334C153.769 11.3743 153.871 9.74512 154.122 8.44629C154.327 7.48926 154.623 6.76009 155.011 6.25879ZM131.017 9.47168C131.45 8.24121 132.065 7.20443 132.862 6.36133C133.774 5.35872 134.833 4.80046 136.041 4.68652C135.449 4.61816 134.822 4.69792 134.161 4.92578C133.546 5.15365 132.988 5.50684 132.486 5.98535C131.575 6.80566 130.88 7.89941 130.401 9.2666C129.581 11.682 129.137 14.1771 129.068 16.752L129.513 14.9062L129.957 13.0947C130.322 11.7048 130.675 10.4971 131.017 9.47168ZM152.037 5.71191C152.994 3.75228 154.635 2.7041 156.959 2.56738C160.217 2.40788 162.804 4.58398 164.718 9.0957C166.563 13.4251 167.384 18.8369 167.179 25.3311C166.928 33.762 166.21 39.8005 165.025 43.4463C163.408 48.4821 160.582 51 156.549 51C154.156 51 152.322 50.0771 151.046 48.2314C149.633 46.249 149.029 43.3779 149.234 39.6182C149.326 37.3851 149.007 35.7559 148.277 34.7305C147.708 33.9557 146.91 33.5684 145.885 33.5684C143.788 33.5684 142.9 35.6761 143.219 39.8916C143.652 45.6566 141.681 48.8581 137.306 49.4961C135.346 49.7695 133.557 49.234 131.939 47.8896C129.957 46.249 128.521 43.5488 127.633 39.7891C126.425 34.7305 125.855 29.3984 125.924 23.793C125.992 17.9824 126.744 12.9466 128.18 8.68555C128.909 6.47526 130.071 4.76628 131.666 3.55859C133.307 2.30534 135.152 1.83822 137.203 2.15723C139.755 2.5446 141.578 3.63835 142.672 5.43848C143.902 7.46647 144.301 10.4857 143.868 14.4961C143.731 15.9089 143.948 17.0596 144.518 17.9482C145.087 18.8141 145.93 19.2926 147.047 19.3838C148.163 19.4749 149.063 19.1445 149.747 18.3926C150.567 17.5267 150.943 16.2279 150.875 14.4961C150.693 10.5312 151.08 7.60319 152.037 5.71191ZM195.514 10.0186C196.152 9.06152 196.767 8.24121 197.359 7.55762C198.043 6.76009 198.806 6.0765 199.649 5.50684C198.123 6.28158 196.607 7.69434 195.104 9.74512C193.964 11.2946 192.973 13.1289 192.13 15.248C191.811 16.0228 191.458 17.0026 191.07 18.1875L190.558 19.6572L190.079 21.127C189.646 22.3574 189.202 23.2575 188.746 23.8271C188.404 24.2829 188.028 24.6133 187.618 24.8184C187.231 25.0007 186.729 25.1032 186.114 25.126C186.729 25.1943 187.254 25.1374 187.687 24.9551C188.165 24.7956 188.598 24.4993 188.985 24.0664C189.487 23.474 190.011 22.5511 190.558 21.2979C190.831 20.6598 191.196 19.6914 191.651 18.3926L192.198 16.9229L192.745 15.4873C193.52 13.5277 194.443 11.7048 195.514 10.0186ZM173.878 20.4434C174.129 18.5065 174.413 16.8431 174.732 15.4531L174.801 15.1455L174.869 14.8379L175.04 14.1543C175.154 13.6074 175.279 13.1175 175.416 12.6846C175.735 11.4997 176.1 10.4743 176.51 9.6084C177.604 7.26139 179.028 6.00814 180.782 5.84863C179.347 5.75749 178.071 6.47526 176.954 8.00195C176.544 8.57161 176.145 9.2666 175.758 10.0869C175.484 10.7021 175.222 11.3971 174.972 12.1719C173.627 16.0684 173.058 20.5003 173.263 25.4678L173.57 22.9727L173.878 20.4434ZM197.633 3.62695C200.504 1.66732 203.329 1.5306 206.109 3.2168C208.342 4.58398 210.131 7.86523 211.476 13.0605C212.729 17.8685 213.355 23.2461 213.355 29.1934C213.333 35.2773 212.672 40.3132 211.373 44.3008C209.892 48.7441 207.841 50.9772 205.221 51C201.142 51.0228 199.16 48.2542 199.273 42.6943C199.296 41.8057 199.376 40.7689 199.513 39.584C199.558 39.1966 199.615 38.7181 199.684 38.1484L199.786 37.499L199.854 36.8496C200.082 35.0495 200.048 34.1038 199.752 34.0127C199.456 33.9443 199.228 34.0241 199.068 34.252C198.954 34.3887 198.715 34.8786 198.351 35.7217C198.146 36.223 197.94 36.6673 197.735 37.0547C197.462 37.6699 197.166 38.2852 196.847 38.9004C195.981 40.5182 194.933 42.2728 193.702 44.1641C192.312 46.3288 190.615 48.015 188.609 49.2227C186.49 50.4987 184.36 51 182.218 50.7266C174.881 49.724 171.007 42.6829 170.597 29.6035C170.369 22.4941 171.075 16.4671 172.716 11.5225C174.425 6.41829 176.738 3.67253 179.654 3.28516C182.047 2.96615 183.801 3.61556 184.918 5.2334C186.308 7.28418 186.638 10.8161 185.909 15.8291C185.522 18.5635 185.351 20.318 185.396 21.0928C185.419 21.9587 185.727 22.4144 186.319 22.46C186.638 22.4827 186.957 22.1637 187.276 21.5029C187.527 21.0244 187.869 20.1585 188.302 18.9053L188.473 18.4951L188.609 18.085L188.917 17.1963C189.168 16.4671 189.396 15.8291 189.601 15.2822C190.17 13.7783 190.751 12.4567 191.344 11.3174C193.167 7.78548 195.263 5.22201 197.633 3.62695ZM239.947 36.8496L240.46 36.6787C241.987 36.2002 243.342 35.8356 244.527 35.585C243.912 35.471 243.194 35.471 242.374 35.585C241.736 35.6533 241.03 35.8128 240.255 36.0635C239.981 36.1318 239.64 36.2572 239.229 36.4395L238.751 36.6104L238.272 36.8154C237.612 37.0433 236.928 37.2256 236.222 37.3623C236.882 37.499 237.612 37.4762 238.409 37.2939C238.683 37.2484 239.024 37.1572 239.435 37.0205L239.947 36.8496ZM227.232 6.22461C228.076 5.74609 229.021 5.37012 230.069 5.09668C230.935 4.84603 231.961 4.67513 233.146 4.58398C232.143 4.51562 231.095 4.58398 230.001 4.78906C228.907 4.99414 227.905 5.32454 226.993 5.78027C226.059 6.236 225.17 6.83984 224.327 7.5918C223.644 8.2526 222.994 9.11849 222.379 10.1895C221.467 11.8757 220.772 13.8695 220.294 16.1709C219.884 18.1533 219.656 20.2383 219.61 22.4258L219.85 20.8535C219.941 20.2611 220.032 19.7484 220.123 19.3154C220.305 18.2445 220.522 17.2305 220.772 16.2734C221.41 13.9036 222.14 11.9782 222.96 10.4971C223.507 9.51725 224.111 8.70833 224.771 8.07031C225.432 7.40951 226.253 6.79427 227.232 6.22461ZM236.632 23.2461L236.358 23.3486L235.846 23.5195L235.299 23.6904C235.641 23.8044 236.028 23.8499 236.461 23.8271C236.62 23.8271 236.814 23.8044 237.042 23.7588L237.281 23.7246L237.555 23.6904C237.874 23.6449 238.215 23.6107 238.58 23.5879C239.013 23.5879 239.366 23.6221 239.64 23.6904C239.435 23.3942 239.104 23.1891 238.648 23.0752C238.307 22.984 237.908 22.9727 237.452 23.041C237.293 23.0638 237.099 23.1094 236.871 23.1777L236.632 23.2461ZM235.162 34.5254C235.982 34.8444 236.985 34.776 238.17 34.3203C242.044 32.862 245.074 32.5544 247.262 33.3975C249.335 34.195 250.361 35.904 250.338 38.5244C250.315 40.484 249.358 42.4437 247.467 44.4033C245.689 46.249 243.399 47.7757 240.597 48.9834C237.726 50.2367 234.889 50.9089 232.086 51C229.01 51.0911 226.412 50.4531 224.293 49.0859C222.151 47.696 220.408 45.0186 219.063 41.0537C217.81 37.3623 217.081 33.1468 216.876 28.4072C216.694 23.6449 217.081 19.2812 218.038 15.3164C219.063 11.0098 220.636 7.86523 222.755 5.88281C225.011 3.74089 227.768 2.46484 231.026 2.05469C233.897 1.71289 236.757 2.05469 239.605 3.08008C242.317 4.08268 244.356 5.46126 245.724 7.21582C247.205 9.06152 247.547 10.8844 246.749 12.6846C246.271 13.7327 245.462 14.4961 244.322 14.9746C243.479 15.3164 242.306 15.5443 240.802 15.6582L239.845 15.7266L238.922 15.7607C238.17 15.8063 237.566 15.8633 237.11 15.9316C235.789 16.0911 234.809 16.4102 234.171 16.8887C233.738 17.2077 233.442 17.6406 233.282 18.1875C233.146 18.7116 233.157 19.2243 233.316 19.7256C233.749 20.9105 234.718 21.3092 236.222 20.9219C237.999 20.4661 239.526 20.5915 240.802 21.2979C242.055 21.9814 242.727 23.0296 242.818 24.4424C242.91 25.9691 242.408 27.2223 241.314 28.2021C240.152 29.2731 238.352 29.9225 235.914 30.1504C235.071 30.2415 234.456 30.5947 234.068 31.21C233.681 31.8024 233.59 32.429 233.795 33.0898C234 33.7962 234.456 34.2747 235.162 34.5254ZM295.387 32.2695C295.66 32.0417 295.899 31.8708 296.104 31.7568C296.674 31.415 297.244 31.1872 297.813 31.0732C297.221 30.9365 296.583 31.0163 295.899 31.3125C295.649 31.4036 295.353 31.5518 295.011 31.7568L294.635 32.0303L294.259 32.3037C293.211 33.0101 292.105 33.4772 290.943 33.7051C291.536 33.8418 292.174 33.819 292.857 33.6367C293.427 33.5 294.02 33.2266 294.635 32.8164L295.011 32.543L295.387 32.2695ZM273.204 13.4023C274.138 11.7389 275.198 10.3034 276.383 9.0957C277.613 7.79688 279.049 6.7487 280.689 5.95117C282.193 5.29036 283.937 4.88021 285.919 4.7207C285.099 4.65234 284.187 4.68652 283.185 4.82324C282.319 4.93717 281.419 5.16504 280.484 5.50684C278.798 6.19043 277.271 7.23861 275.904 8.65137C274.605 9.99577 273.557 11.4997 272.76 13.1631C271.939 14.8493 271.358 16.5924 271.017 18.3926C271.677 16.4557 272.407 14.7923 273.204 13.4023ZM299.693 28.749C301.926 29.6377 303.202 31.848 303.521 35.3799C303.886 39.2536 302.656 42.6715 299.83 45.6338C296.868 48.7555 292.914 50.5215 287.97 50.9316C285.053 51.1823 282.33 50.8291 279.801 49.8721C277.271 48.915 275.084 47.4111 273.238 45.3604C269.273 41.0309 267.291 35.0267 267.291 27.3477C267.291 20.5801 268.738 14.9062 271.632 10.3262C274.298 6.13346 277.659 3.5472 281.715 2.56738C284.882 1.79264 288.004 1.88379 291.08 2.84082C294.43 3.86621 297.141 5.76888 299.215 8.54883C300.172 9.84766 300.753 11.2035 300.958 12.6162C301.163 13.915 301.026 15.0999 300.548 16.1709C300.069 17.1963 299.363 17.9255 298.429 18.3584C297.449 18.8141 296.378 18.8369 295.216 18.4268C292.573 17.4697 290.51 17.1051 289.029 17.333C287.001 17.652 285.805 19.0534 285.44 21.5371C285.19 23.2461 285.27 24.8411 285.68 26.3223C286.067 27.6667 286.682 28.7718 287.525 29.6377C288.368 30.4808 289.291 30.9479 290.294 31.0391C291.365 31.153 292.39 30.834 293.37 30.082C294.373 29.3073 295.432 28.7946 296.549 28.5439C297.665 28.2933 298.714 28.3617 299.693 28.749ZM327.105 15.624C327.994 14.8493 328.894 13.8809 329.806 12.7188C330.284 12.1035 330.683 11.568 331.002 11.1123L331.275 10.7021L331.549 10.292C331.754 9.9502 331.936 9.68815 332.096 9.50586C333.007 8.29818 334.055 7.64876 335.24 7.55762C334.625 7.48926 333.976 7.61458 333.292 7.93359C332.7 8.22982 332.164 8.63997 331.686 9.16406C331.503 9.36914 331.298 9.64258 331.07 9.98438L330.797 10.3604L330.489 10.7705C330.125 11.2718 329.737 11.7845 329.327 12.3086C328.484 13.3796 327.63 14.3594 326.764 15.248C325.647 16.3646 324.656 17.1963 323.79 17.7432C324.861 17.333 325.966 16.6266 327.105 15.624ZM315.04 6.42969C315.45 5.92839 315.883 5.52962 316.339 5.2334C316.817 4.91439 317.364 4.70931 317.979 4.61816C317.41 4.57259 316.806 4.68652 316.168 4.95996C315.621 5.2334 315.12 5.60938 314.664 6.08789C313.958 6.81706 313.308 7.86523 312.716 9.23242C312.26 10.2806 311.884 11.4427 311.588 12.7188C311.337 13.7214 311.155 14.929 311.041 16.3418L311.554 14.5986L312.066 12.8555C312.545 11.3971 312.955 10.2692 313.297 9.47168C313.867 8.17285 314.448 7.15885 315.04 6.42969ZM331.036 23.6904C330.558 24.1006 330.774 24.5563 331.686 25.0576C336.721 27.8376 340.253 31.4378 342.281 35.8584C343.215 37.9548 343.66 39.9941 343.614 41.9766C343.569 44.0501 342.988 45.9072 341.871 47.5479C340.868 49.0062 339.638 50.0202 338.18 50.5898C336.721 51.1139 335.24 51.1367 333.736 50.6582C332.164 50.1341 330.751 49.0973 329.498 47.5479C328.154 45.8389 327.128 43.6514 326.422 40.9854C325.328 36.8382 324.155 34.2292 322.901 33.1582C322.423 32.748 322.047 32.6569 321.773 32.8848C321.523 33.1126 321.443 33.5342 321.534 34.1494V34.252L321.568 34.3887L321.603 34.6963C321.648 34.9697 321.682 35.2432 321.705 35.5166C321.796 36.223 321.876 36.9294 321.944 37.6357C322.104 39.6637 322.092 41.4867 321.91 43.1045C321.363 47.9124 319.415 50.3734 316.065 50.4873C312.42 50.624 309.89 47.9694 308.478 42.5234C307.293 38.0345 306.951 32.11 307.452 24.75C307.953 17.4128 309.059 11.8415 310.768 8.03613C312.887 3.27376 315.895 1.34831 319.791 2.25977C321.682 2.71549 322.89 3.83203 323.414 5.60938C324.029 7.7513 323.517 10.5312 321.876 13.9492C321.466 14.7923 321.397 15.3278 321.671 15.5557C321.944 15.7607 322.457 15.624 323.209 15.1455C325.1 13.9834 327.083 11.8301 329.156 8.68555C330.387 6.83984 331.868 5.67773 333.6 5.19922C335.149 4.76628 336.653 4.92578 338.111 5.67773C339.547 6.42969 340.572 7.56901 341.188 9.0957C341.848 10.7591 341.882 12.5137 341.29 14.3594C340.652 16.3418 339.547 18.0508 337.975 19.4863C336.926 20.4661 335.548 21.3776 333.839 22.2207C333.611 22.3346 333.303 22.4714 332.916 22.6309L332.506 22.8359L332.13 23.041C331.583 23.2917 331.218 23.5081 331.036 23.6904ZM372.086 10.0186C372.724 9.06152 373.339 8.24121 373.932 7.55762C374.615 6.76009 375.379 6.0765 376.222 5.50684C374.695 6.28158 373.18 7.69434 371.676 9.74512C370.536 11.2946 369.545 13.1289 368.702 15.248C368.383 16.0228 368.03 17.0026 367.643 18.1875L367.13 19.6572L366.651 21.127C366.218 22.3574 365.774 23.2575 365.318 23.8271C364.977 24.2829 364.601 24.6133 364.19 24.8184C363.803 25.0007 363.302 25.1032 362.687 25.126C363.302 25.1943 363.826 25.1374 364.259 24.9551C364.737 24.7956 365.17 24.4993 365.558 24.0664C366.059 23.474 366.583 22.5511 367.13 21.2979C367.403 20.6598 367.768 19.6914 368.224 18.3926L368.771 16.9229L369.317 15.4873C370.092 13.5277 371.015 11.7048 372.086 10.0186ZM350.45 20.4434C350.701 18.5065 350.986 16.8431 351.305 15.4531L351.373 15.1455L351.441 14.8379L351.612 14.1543C351.726 13.6074 351.852 13.1175 351.988 12.6846C352.307 11.4997 352.672 10.4743 353.082 9.6084C354.176 7.26139 355.6 6.00814 357.354 5.84863C355.919 5.75749 354.643 6.47526 353.526 8.00195C353.116 8.57161 352.717 9.2666 352.33 10.0869C352.057 10.7021 351.795 11.3971 351.544 12.1719C350.2 16.0684 349.63 20.5003 349.835 25.4678L350.143 22.9727L350.45 20.4434ZM374.205 3.62695C377.076 1.66732 379.902 1.5306 382.682 3.2168C384.915 4.58398 386.703 7.86523 388.048 13.0605C389.301 17.8685 389.928 23.2461 389.928 29.1934C389.905 35.2773 389.244 40.3132 387.945 44.3008C386.464 48.7441 384.413 50.9772 381.793 51C377.714 51.0228 375.732 48.2542 375.846 42.6943C375.868 41.8057 375.948 40.7689 376.085 39.584C376.131 39.1966 376.188 38.7181 376.256 38.1484L376.358 37.499L376.427 36.8496C376.655 35.0495 376.62 34.1038 376.324 34.0127C376.028 33.9443 375.8 34.0241 375.641 34.252C375.527 34.3887 375.287 34.8786 374.923 35.7217C374.718 36.223 374.513 36.6673 374.308 37.0547C374.034 37.6699 373.738 38.2852 373.419 38.9004C372.553 40.5182 371.505 42.2728 370.274 44.1641C368.884 46.3288 367.187 48.015 365.182 49.2227C363.062 50.4987 360.932 51 358.79 50.7266C351.453 49.724 347.579 42.6829 347.169 29.6035C346.941 22.4941 347.647 16.4671 349.288 11.5225C350.997 6.41829 353.31 3.67253 356.227 3.28516C358.619 2.96615 360.374 3.61556 361.49 5.2334C362.88 7.28418 363.211 10.8161 362.481 15.8291C362.094 18.5635 361.923 20.318 361.969 21.0928C361.992 21.9587 362.299 22.4144 362.892 22.46C363.211 22.4827 363.53 22.1637 363.849 21.5029C364.099 21.0244 364.441 20.1585 364.874 18.9053L365.045 18.4951L365.182 18.085L365.489 17.1963C365.74 16.4671 365.968 15.8291 366.173 15.2822C366.743 13.7783 367.324 12.4567 367.916 11.3174C369.739 7.78548 371.835 5.22201 374.205 3.62695ZM425.372 35.9268C426.01 35.4255 426.432 34.776 426.637 33.9785C426.819 33.2493 426.819 32.4974 426.637 31.7227C426.5 32.6113 426.329 33.3063 426.124 33.8076C425.851 34.4684 425.463 35.0039 424.962 35.4141C424.506 35.7786 423.891 36.0863 423.116 36.3369C422.615 36.4964 421.92 36.6673 421.031 36.8496C421.76 36.9863 422.501 36.9863 423.253 36.8496C424.073 36.6901 424.78 36.3825 425.372 35.9268ZM418.399 29.2275C417.67 31.0049 417.522 32.2923 417.955 33.0898C418.365 33.7962 419.345 34.1608 420.895 34.1836C422.444 34.2064 423.39 33.9443 423.731 33.3975C423.959 33.0329 424.05 32.4632 424.005 31.6885C423.959 30.9593 423.8 30.2074 423.526 29.4326C422.866 27.5186 421.988 26.5501 420.895 26.5273C419.983 26.5046 419.151 27.4046 418.399 29.2275ZM410.675 15.624C411.495 13.9378 412.384 12.3997 413.341 11.0098C414.412 9.4375 415.551 8.10449 416.759 7.01074C418.285 5.64355 419.835 4.86882 421.407 4.68652C420.564 4.66374 419.687 4.83464 418.775 5.19922C417.932 5.58659 417.146 6.05371 416.417 6.60059C415.164 7.60319 413.956 8.94759 412.794 10.6338C411.723 12.2288 410.857 13.8239 410.196 15.4189C409.49 17.1507 408.943 18.8597 408.556 20.5459C409.33 18.5863 410.037 16.9456 410.675 15.624ZM396.935 38.627C397.276 38.3307 397.721 38.0459 398.268 37.7725C398.609 37.5674 399.088 37.3395 399.703 37.0889L400.489 36.7471L401.241 36.4053C400.102 36.3825 399.008 36.6445 397.96 37.1914C397.345 37.5104 396.889 37.8636 396.593 38.251C396.16 38.7751 395.989 39.3333 396.08 39.9258C396.24 39.4017 396.524 38.9688 396.935 38.627ZM437.848 32.6113C438.258 33.0898 438.919 33.4544 439.83 33.7051C443.066 34.6165 445.299 36.109 446.529 38.1826C447.783 40.3245 447.703 42.626 446.29 45.0869C444.786 47.7301 441.414 49.4733 436.173 50.3164C432.641 50.8861 427.582 51.0911 420.997 50.9316C413.774 50.7266 407.747 49.9176 402.916 48.5049C397.516 46.9098 394.439 44.7451 393.688 42.0107C393.141 40.0739 393.403 38.4219 394.474 37.0547C395.659 35.528 397.732 34.457 400.694 33.8418C401.743 33.6139 402.494 33.2266 402.95 32.6797C403.36 32.2012 403.679 31.4036 403.907 30.2871C403.976 29.9225 404.067 29.3187 404.181 28.4756L404.283 27.9629L404.352 27.3818C404.42 26.9489 404.488 26.5501 404.557 26.1855C404.921 24.0208 405.411 21.8903 406.026 19.7939C407.576 14.5303 409.809 10.235 412.726 6.9082C415.619 3.60417 418.57 1.98633 421.578 2.05469C425.087 2.14583 428.129 3.90039 430.704 7.31836C433.438 11.0098 435.296 16.2279 436.275 22.9727C436.412 23.793 436.515 24.6247 436.583 25.4678C436.651 26.0602 436.708 26.7552 436.754 27.5527C436.868 29.1478 436.97 30.1846 437.062 30.6631C437.198 31.529 437.46 32.1784 437.848 32.6113ZM470.592 15.624C471.48 14.8493 472.381 13.8809 473.292 12.7188C473.771 12.1035 474.169 11.568 474.488 11.1123L474.762 10.7021L475.035 10.292C475.24 9.9502 475.423 9.68815 475.582 9.50586C476.493 8.29818 477.542 7.64876 478.727 7.55762C478.111 7.48926 477.462 7.61458 476.778 7.93359C476.186 8.22982 475.65 8.63997 475.172 9.16406C474.99 9.36914 474.785 9.64258 474.557 9.98438L474.283 10.3604L473.976 10.7705C473.611 11.2718 473.224 11.7845 472.813 12.3086C471.97 13.3796 471.116 14.3594 470.25 15.248C469.133 16.3646 468.142 17.1963 467.276 17.7432C468.347 17.333 469.452 16.6266 470.592 15.624ZM458.526 6.42969C458.937 5.92839 459.369 5.52962 459.825 5.2334C460.304 4.91439 460.851 4.70931 461.466 4.61816C460.896 4.57259 460.292 4.68652 459.654 4.95996C459.107 5.2334 458.606 5.60938 458.15 6.08789C457.444 6.81706 456.795 7.86523 456.202 9.23242C455.746 10.2806 455.37 11.4427 455.074 12.7188C454.824 13.7214 454.641 14.929 454.527 16.3418L455.04 14.5986L455.553 12.8555C456.031 11.3971 456.441 10.2692 456.783 9.47168C457.353 8.17285 457.934 7.15885 458.526 6.42969ZM474.522 23.6904C474.044 24.1006 474.26 24.5563 475.172 25.0576C480.208 27.8376 483.74 31.4378 485.768 35.8584C486.702 37.9548 487.146 39.9941 487.101 41.9766C487.055 44.0501 486.474 45.9072 485.357 47.5479C484.355 49.0062 483.124 50.0202 481.666 50.5898C480.208 51.1139 478.727 51.1367 477.223 50.6582C475.65 50.1341 474.238 49.0973 472.984 47.5479C471.64 45.8389 470.615 43.6514 469.908 40.9854C468.814 36.8382 467.641 34.2292 466.388 33.1582C465.909 32.748 465.533 32.6569 465.26 32.8848C465.009 33.1126 464.929 33.5342 465.021 34.1494V34.252L465.055 34.3887L465.089 34.6963C465.134 34.9697 465.169 35.2432 465.191 35.5166C465.283 36.223 465.362 36.9294 465.431 37.6357C465.59 39.6637 465.579 41.4867 465.396 43.1045C464.85 47.9124 462.901 50.3734 459.552 50.4873C455.906 50.624 453.377 47.9694 451.964 42.5234C450.779 38.0345 450.437 32.11 450.938 24.75C451.44 17.4128 452.545 11.8415 454.254 8.03613C456.373 3.27376 459.381 1.34831 463.277 2.25977C465.169 2.71549 466.376 3.83203 466.9 5.60938C467.516 7.7513 467.003 10.5312 465.362 13.9492C464.952 14.7923 464.884 15.3278 465.157 15.5557C465.431 15.7607 465.943 15.624 466.695 15.1455C468.587 13.9834 470.569 11.8301 472.643 8.68555C473.873 6.83984 475.354 5.67773 477.086 5.19922C478.635 4.76628 480.139 4.92578 481.598 5.67773C483.033 6.42969 484.059 7.56901 484.674 9.0957C485.335 10.7591 485.369 12.5137 484.776 14.3594C484.138 16.3418 483.033 18.0508 481.461 19.4863C480.413 20.4661 479.034 21.3776 477.325 22.2207C477.097 22.3346 476.79 22.4714 476.402 22.6309L475.992 22.8359L475.616 23.041C475.069 23.2917 474.705 23.5081 474.522 23.6904ZM515.572 10.0186C516.21 9.06152 516.826 8.24121 517.418 7.55762C518.102 6.76009 518.865 6.0765 519.708 5.50684C518.181 6.28158 516.666 7.69434 515.162 9.74512C514.023 11.2946 513.032 13.1289 512.188 15.248C511.869 16.0228 511.516 17.0026 511.129 18.1875L510.616 19.6572L510.138 21.127C509.705 22.3574 509.26 23.2575 508.805 23.8271C508.463 24.2829 508.087 24.6133 507.677 24.8184C507.289 25.0007 506.788 25.1032 506.173 25.126C506.788 25.1943 507.312 25.1374 507.745 24.9551C508.224 24.7956 508.657 24.4993 509.044 24.0664C509.545 23.474 510.069 22.5511 510.616 21.2979C510.89 20.6598 511.254 19.6914 511.71 18.3926L512.257 16.9229L512.804 15.4873C513.578 13.5277 514.501 11.7048 515.572 10.0186ZM493.937 20.4434C494.187 18.5065 494.472 16.8431 494.791 15.4531L494.859 15.1455L494.928 14.8379L495.099 14.1543C495.213 13.6074 495.338 13.1175 495.475 12.6846C495.794 11.4997 496.158 10.4743 496.568 9.6084C497.662 7.26139 499.086 6.00814 500.841 5.84863C499.405 5.75749 498.129 6.47526 497.013 8.00195C496.603 8.57161 496.204 9.2666 495.816 10.0869C495.543 10.7021 495.281 11.3971 495.03 12.1719C493.686 16.0684 493.116 20.5003 493.321 25.4678L493.629 22.9727L493.937 20.4434ZM517.691 3.62695C520.562 1.66732 523.388 1.5306 526.168 3.2168C528.401 4.58398 530.19 7.86523 531.534 13.0605C532.787 17.8685 533.414 23.2461 533.414 29.1934C533.391 35.2773 532.73 40.3132 531.432 44.3008C529.951 48.7441 527.9 50.9772 525.279 51C521.201 51.0228 519.218 48.2542 519.332 42.6943C519.355 41.8057 519.435 40.7689 519.571 39.584C519.617 39.1966 519.674 38.7181 519.742 38.1484L519.845 37.499L519.913 36.8496C520.141 35.0495 520.107 34.1038 519.811 34.0127C519.514 33.9443 519.286 34.0241 519.127 34.252C519.013 34.3887 518.774 34.8786 518.409 35.7217C518.204 36.223 517.999 36.6673 517.794 37.0547C517.521 37.6699 517.224 38.2852 516.905 38.9004C516.039 40.5182 514.991 42.2728 513.761 44.1641C512.371 46.3288 510.673 48.015 508.668 49.2227C506.549 50.4987 504.418 51 502.276 50.7266C494.939 49.724 491.065 42.6829 490.655 29.6035C490.427 22.4941 491.134 16.4671 492.774 11.5225C494.483 6.41829 496.796 3.67253 499.713 3.28516C502.105 2.96615 503.86 3.61556 504.977 5.2334C506.367 7.28418 506.697 10.8161 505.968 15.8291C505.58 18.5635 505.41 20.318 505.455 21.0928C505.478 21.9587 505.785 22.4144 506.378 22.46C506.697 22.4827 507.016 22.1637 507.335 21.5029C507.586 21.0244 507.927 20.1585 508.36 18.9053L508.531 18.4951L508.668 18.085L508.976 17.1963C509.226 16.4671 509.454 15.8291 509.659 15.2822C510.229 13.7783 510.81 12.4567 511.402 11.3174C513.225 7.78548 515.322 5.22201 517.691 3.62695Z" fill="white" fill-opacity="0.5"/>
<defs>
<linearGradient id="paint0_linear_3_20" x1="-20.9325" y1="-45.8017" x2="443.531" y2="208.018" gradientUnits="userSpaceOnUse">
<stop stop-color="white"/>
<stop offset="1" stop-color="#8E8E9C"/>
</linearGradient>
</defs>
</svg>
