<svg viewBox="0 0 14 14" fill="none" xmlns="http://www.w3.org/2000/svg">
<path d="M2.71621 5.28565C2.71621 2.91875 4.63497 1 7.00187 1V1C9.36876 1 11.2875 2.91875 11.2875 5.28565V6.40021C11.2875 8.48424 13.0018 7.72408 13.0018 9.40016C13.0018 10.1102 12.4262 10.6 11.7161 10.6C8.10469 10.6 6.29577 10.6 2.28765 10.6C1.57758 10.6 1.00195 10.1102 1.00195 9.40016C1.00195 7.72408 2.71621 8.48424 2.71621 6.40021V5.28565Z" stroke="#F3F3F3" stroke-linejoin="round"/>
<path d="M9.3989 10.6C9.3989 11.9253 8.32454 12.9997 6.99925 12.9997C5.67397 12.9997 4.59961 11.9253 4.59961 10.6" stroke="#F3F3F3"/>
</svg>
