<svg width="160" height="50" viewBox="0 0 160 50" fill="none" xmlns="http://www.w3.org/2000/svg">
<g clip-path="url(#clip0_194_6817)">
<mask id="mask0_194_6817" style="mask-type:luminance" maskUnits="userSpaceOnUse" x="0" y="0" width="160" height="50">
<path d="M0 0H160V50H0V0Z" fill="white"/>
</mask>
<g mask="url(#mask0_194_6817)">
<path d="M62.7145 25.1156C63.9184 24.4281 64.8815 23.5718 65.5837 22.5624C66.3815 21.4213 66.8036 20.0574 66.7907 18.6625C66.7907 15.9718 65.7903 13.8703 63.819 12.4187C61.871 10.9812 59.1914 10.2546 55.8516 10.2546H43.7755V41.4281H56.3347C59.8516 41.4281 62.6679 40.6062 64.7044 38.9828C66.7565 37.3453 67.7988 35.0531 67.7988 32.1671C67.7988 30.4093 67.3079 28.8984 66.3433 27.6749C65.478 26.5812 64.2586 25.7218 62.7145 25.1156ZM50.3107 15.8734H55.3266C56.9002 15.8734 58.087 16.1796 58.859 16.7843C59.6202 17.3781 59.993 18.1625 59.993 19.175C59.993 20.1906 59.6202 21.0125 58.859 21.6109C58.087 22.214 56.9002 22.5203 55.3266 22.5203H50.3107V15.8734ZM59.7538 34.7531C58.8839 35.4546 57.5557 35.8093 55.8081 35.8093H50.3107V28.1812H55.8097C57.5557 28.1812 58.8854 28.525 59.7584 29.1968C60.6237 29.8687 61.0431 30.7546 61.0431 31.9093C61.0431 33.125 60.6221 34.0546 59.7538 34.7531ZM76.6299 18.1171H70.0497V41.4265H76.6283L76.6299 18.1171ZM141.61 21.625C140.558 20.3675 139.23 19.3727 137.731 18.7187C136.2 18.0359 134.477 17.689 132.614 17.689C130.331 17.689 128.271 18.2109 126.489 19.239C124.728 20.2488 123.273 21.7211 122.28 23.4984C121.268 25.2953 120.757 27.3765 120.757 29.6875C120.757 32 121.254 34.2187 122.233 36.0421C123.19 37.8435 124.647 39.3257 126.427 40.3078C128.224 41.3062 130.336 41.8125 132.703 41.8125C135.608 41.8125 138.073 41.0781 140.035 39.6265C141.922 38.2312 143.219 36.264 143.928 33.7984H137.304C136.956 34.6375 136.465 35.3515 135.762 35.8546C134.93 36.4484 133.857 36.7484 132.571 36.7484C131.456 36.7484 130.499 36.4765 129.728 35.939C128.956 35.3999 128.366 34.6062 127.977 33.5734C127.729 32.8947 127.563 32.1887 127.482 31.4703H144.043L144.075 31.264C144.37 29.3843 144.296 27.6031 143.852 25.9703C143.426 24.3752 142.661 22.892 141.61 21.6234V21.625ZM127.588 27.1562C127.687 26.6731 127.825 26.1987 127.999 25.7375C128.403 24.6906 128.986 23.8859 129.733 23.3484C130.477 22.8109 131.403 22.5406 132.484 22.5406C133.84 22.5406 134.954 22.9828 135.793 23.8531C136.589 24.6812 137.04 25.8124 137.136 27.1546L127.588 27.1562ZM76.7666 10.2546H69.913V15.8734H76.7666V10.2546ZM112.793 20.7625C112.051 19.8524 111.124 19.112 110.075 18.5906C108.847 17.9921 107.41 17.689 105.804 17.689C103.839 17.689 102.076 18.1781 100.569 19.1375C99.0625 20.0968 97.8664 21.4546 97.0198 23.1671C96.1732 24.8765 95.7444 26.8828 95.7444 29.1328C95.7444 31.3828 96.1949 33.2718 97.0866 34.9921C97.9798 36.7187 99.2178 38.0937 100.767 39.0812C102.317 40.0703 104.086 40.5734 106.025 40.5734C107.488 40.5734 108.826 40.2546 109.997 39.625C110.899 39.145 111.688 38.4764 112.311 37.664V40.2015C112.311 41.775 111.901 42.9828 111.094 43.7874C110.283 44.5921 109.049 44.9984 107.428 44.9984C106.029 44.9984 104.931 44.6796 104.162 44.0499C103.533 43.5343 102.983 42.8593 102.856 41.4281H96.5118C96.5709 43.4312 97.1549 44.7796 97.9813 45.9624C98.9056 47.2859 100.207 48.3218 101.854 49.0374C103.482 49.7437 105.374 50.1031 107.471 50.1031C110.994 50.1031 113.798 49.2124 115.805 47.4578C117.824 45.6937 118.847 43.2234 118.847 40.1171V18.1171H112.795L112.793 20.7625ZM111.636 32.2296C111.254 33.0557 110.646 33.755 109.883 34.2453C109.138 34.714 108.237 34.9546 107.209 34.9546C105.717 34.9546 104.56 34.4437 103.667 33.3953C102.775 32.3499 102.323 30.9156 102.323 29.1312C102.323 27.3468 102.774 25.9124 103.665 24.8671C104.549 23.8328 105.741 23.3078 107.207 23.3078C108.675 23.3078 109.97 23.839 110.882 24.8906C111.802 25.9515 112.268 27.3921 112.268 29.1718C112.268 30.3265 112.055 31.3531 111.636 32.2281V32.2296ZM160.004 23.6937V18.1187H155.255V10.2546H148.72V18.1187H144.664V23.6937H148.72V32.8187C148.72 37.8921 149.714 41.6203 155.906 41.5046L159.794 41.4265V36.2031H157.865C155.112 36.2031 155.266 34.589 155.266 31.5906L155.255 23.6953L160.004 23.6937ZM94.146 23.6937V18.1187H89.3973V10.2546H82.8621V18.1187H78.8046V23.6937H82.859V32.8187C82.859 37.8921 83.8532 41.6203 90.0466 41.5046L93.9332 41.4265V36.2031H92.0085C89.2559 36.2031 89.4081 34.589 89.4081 31.5906L89.3973 23.6953L94.146 23.6937ZM16.4046 15.8734H26.2734L36.3689 25.9624C37.026 26.6187 37.0291 27.6875 36.3751 28.3468L23.4276 41.4359H13.2637L16.3378 38.4296L27.6217 27.1515L16.4808 15.8718" fill="#00E0FF"/>
<path d="M20.4581 27.125H10.5925L0.495398 17.0359C0.180589 16.7204 0.00312386 16.2921 0.0019589 15.845C0.000793936 15.398 0.176025 14.9688 0.489184 14.6516L13.4368 1.5625H23.6022L20.5296 4.56875L9.24414 15.8469L20.3867 27.125" fill="#00E0FF"/>
</g>
</g>
<defs>
<clipPath id="clip0_194_6817">
<rect width="160" height="50" fill="white"/>
</clipPath>
</defs>
</svg>
