<svg width="88" height="88" viewBox="0 0 88 88" fill="none" xmlns="http://www.w3.org/2000/svg">
<path d="M0 34.2222C0 28.8221 4.37766 24.4445 9.77778 24.4445H68.4444C79.2447 24.4445 88 33.1998 88 44V68.4445C88 79.2447 79.2447 88 68.4444 88H19.5556C8.75532 88 0 79.2447 0 68.4445V34.2222Z" fill="black"/>
<path d="M58.2201 61.1959V42.8755H61.7937V61.1959H58.2201Z" fill="#F7A600"/>
<path d="M17.4395 66.6637H9.77795V48.3434H17.1313C20.7049 48.3434 22.7874 50.3505 22.7874 53.4893C22.7874 55.5215 21.4504 56.8345 20.5257 57.2721C21.6315 57.7869 23.0456 58.9438 23.0456 61.3885C23.0456 64.8108 20.7049 66.6637 17.4395 66.6637ZM16.8481 51.5343H13.3516V55.7548H16.8481C18.3642 55.7548 19.2138 54.9064 19.2138 53.6455C19.2138 52.3826 18.3662 51.5343 16.8481 51.5343ZM17.0793 58.9708H13.3516V63.4728H17.0793C18.6994 63.4728 19.47 62.4432 19.47 61.2092C19.472 59.9733 18.6994 58.9708 17.0793 58.9708Z" fill="white"/>
<path d="M32.8925 59.1501V66.6637H29.3439V59.1501L23.8419 48.3434H27.7238L31.1432 55.7278L34.5107 48.3434H38.3926L32.8925 59.1501Z" fill="white"/>
<path d="M48.5633 66.6637H40.9017V48.3434H48.2551C51.8287 48.3434 53.9112 50.3505 53.9112 53.4893C53.9112 55.5215 52.5742 56.8345 51.6495 57.2721C52.7553 57.7869 54.1693 58.9438 54.1693 61.3885C54.1674 64.8108 51.8268 66.6637 48.5633 66.6637ZM47.9719 51.5343H44.4753V55.7548H47.9719C49.488 55.7548 50.3376 54.9064 50.3376 53.6455C50.3357 52.3826 49.488 51.5343 47.9719 51.5343ZM48.2031 58.9708H44.4753V63.4728H48.2031C49.8232 63.4728 50.5938 62.4432 50.5938 61.2092C50.5938 59.9734 49.8213 58.9708 48.2031 58.9708Z" fill="white"/>
<path d="M73.439 51.5343V66.6637H69.8654V51.5343H65.0839V48.3434H78.2224V51.5343H73.439Z" fill="white"/>
<defs>
<linearGradient id="paint0_linear_312_17534" x1="7.33308" y1="25.594" x2="84.6381" y2="21.7216" gradientUnits="userSpaceOnUse">
<stop stop-color="#FFD748"/>
<stop offset="1" stop-color="#F7A600"/>
</linearGradient>
</defs>
</svg>
