<svg width="142" height="26" viewBox="0 0 142 26" fill="none" xmlns="http://www.w3.org/2000/svg">
<path d="M52.4744 20.9849L52.4746 20.9849C53.8618 20.4581 55.158 19.898 56.3622 19.3251C58.0427 18.5256 58.5483 16.3673 57.3396 14.9195L56.572 15.5604L57.3396 14.9195C54.7877 11.8628 50.6576 7.87089 44.6125 5.07982L44.6125 5.0798C38.2444 2.14003 32.4935 1.82857 29.2365 1.65216L29.1474 1.64734C29.1473 1.64734 29.1473 1.64733 29.1473 1.64733C26.3244 1.49394 23.7608 1.63581 21.4378 2.01065C9.15797 3.96255 3.77934 12.1578 1.90315 16.001C1.09242 17.6617 2.12951 19.4276 3.76025 19.8513C4.73729 20.1052 5.80552 20.3768 6.95398 20.6603C9.64506 21.3247 11.8597 21.8264 13.3272 22.1502L13.3549 22.1563C17.011 22.963 18.8804 23.3756 20.9245 23.7023C25.2558 24.3954 28.6538 24.5249 29.7314 24.5575C32.7393 24.6483 36.7462 24.5557 41.4544 23.8376C44.6063 23.3793 48.3793 22.5393 52.4744 20.9849Z" fill="#F3F3F3" stroke="#14141D" stroke-width="2"/>
<path d="M50.7583 13.8793C50.7583 13.8793 48.6059 18.0892 43.1979 20.5492C45.0322 18.9797 47.6199 15.9046 44.4914 12.84C40.0062 8.47133 23.1033 8.57737 18.1511 12.3204C15.4363 14.3773 15.4791 16.7212 17.0486 18.6194C13.5809 17.3364 11.418 16.2227 11.418 16.2227C11.418 16.2227 14.1328 4.21924 32.0111 5.0248C46.56 5.68213 50.7588 13.8793 50.7588 13.8793H50.7583Z" fill="#999999"/>
<path d="M44.7868 10.1636C44.7868 10.49 44.7763 10.8065 44.7446 11.1224C44.6919 11.8602 44.5748 12.5769 44.3949 13.272V13.2825C43.0802 18.3829 38.5944 22.2298 33.1442 22.63C32.996 22.6511 32.8472 22.6617 32.6884 22.6511H32.6568C32.201 22.6195 31.7558 22.5773 31.3099 22.5246C31.2783 22.5246 31.2461 22.5246 31.225 22.514C30.5038 22.4507 29.7616 22.3769 28.9982 22.2714C28.8816 22.2292 28.7756 22.1976 28.659 22.1659H28.6484C23.9827 20.8063 20.4302 16.8335 19.7307 11.9435C19.6457 11.3639 19.6035 10.7632 19.6035 10.1625C19.6035 9.26696 19.699 8.39201 19.8794 7.5487C20.1322 6.36007 20.6616 5.46519 21.2725 4.52399C21.5812 4.04838 22.079 3.72382 22.6412 3.65082C24.6545 3.38944 26.8552 3.30197 29.2568 3.43061C34.9759 3.72435 39.6772 4.8659 43.5059 6.38025C44.049 6.59506 44.4786 7.04602 44.5762 7.62186C44.6402 7.99974 44.6694 8.37081 44.7247 8.87668C44.7668 9.29806 44.7885 9.73054 44.7885 10.1625L44.7868 10.1636Z" fill="#14141D"/>
<path d="M22.6495 10.7101C22.4255 10.7683 22.3086 10.9916 22.367 11.2155C22.8227 12.9606 25.1007 20.0807 31.8955 19.8789C38.9664 19.669 41.9772 13.3201 42.446 12.2211C42.4912 12.1153 42.4926 12.0002 42.4438 11.896C42.184 11.3412 41.1285 9.63355 38.3727 10.8335C35.1149 12.2514 33.4283 15.0317 29.174 12.3191C25.8571 10.2047 23.5189 10.4842 22.6495 10.7101Z" fill="#0B9D60"/>
<path d="M82 5.58643V19.5864" stroke="#1e1e1e" stroke-linecap="round" stroke-linejoin="round"/>
<path d="M67.0391 7.31299H71.0156C72.6927 7.31299 74 7.80518 74.9375 8.78955C75.8802 9.77393 76.3516 11.1541 76.3516 12.9302C76.3516 14.7114 75.8828 16.0994 74.9453 17.0942C74.0078 18.089 72.6979 18.5864 71.0156 18.5864H67.0391V7.31299ZM68.7891 8.8208V17.0708H70.8516C72.0495 17.0708 72.9661 16.7166 73.6016 16.0083C74.2422 15.3 74.5625 14.2791 74.5625 12.9458C74.5625 11.6177 74.2422 10.5994 73.6016 9.89111C72.9609 9.17757 72.0443 8.8208 70.8516 8.8208H68.7891Z" fill="#1e1e1e"/>
<path d="M97.75 13.8989C97.75 15.425 97.3203 16.6203 96.4609 17.4849C95.6068 18.3442 94.4167 18.7739 92.8906 18.7739C91.276 18.7739 89.9948 18.2479 89.0469 17.1958C88.1042 16.1385 87.6328 14.7062 87.6328 12.8989C87.6328 11.1229 88.1016 9.71663 89.0391 8.68018C89.9818 7.64372 91.2578 7.12549 92.8672 7.12549C94.1224 7.12549 95.1849 7.46663 96.0547 8.14893C96.9297 8.83122 97.4661 9.73486 97.6641 10.8599H95.8672C95.6589 10.1619 95.2917 9.62028 94.7656 9.23486C94.2396 8.84945 93.6094 8.65674 92.875 8.65674C91.7969 8.65674 90.9505 9.03174 90.3359 9.78174C89.7266 10.5265 89.4219 11.5604 89.4219 12.8833C89.4219 14.2323 89.7344 15.2974 90.3594 16.0786C90.9844 16.8547 91.8333 17.2427 92.9062 17.2427C93.8177 17.2427 94.5625 16.9771 95.1406 16.4458C95.7188 15.9093 96.013 15.214 96.0234 14.3599V14.1646H93.1094V12.7505H97.75V13.8989ZM110.695 18.5864L109.664 15.5396H105.367L104.336 18.5864H102.516L106.586 7.31299H108.477L112.547 18.5864H110.695ZM107.492 9.18799L105.812 14.1333H109.219L107.539 9.18799H107.492ZM117.195 15.4458H118.922C118.984 16.0031 119.263 16.451 119.758 16.7896C120.253 17.1281 120.872 17.2974 121.617 17.2974C122.326 17.2974 122.909 17.1333 123.367 16.8052C123.831 16.4771 124.062 16.0604 124.062 15.5552C124.062 15.1177 123.898 14.7609 123.57 14.4849C123.242 14.2036 122.714 13.9744 121.984 13.7974L120.523 13.4458C119.487 13.1958 118.721 12.8234 118.227 12.3286C117.737 11.8338 117.492 11.1932 117.492 10.4067C117.492 9.43799 117.872 8.64893 118.633 8.03955C119.398 7.43018 120.385 7.12549 121.594 7.12549C122.781 7.12549 123.75 7.43018 124.5 8.03955C125.25 8.64372 125.638 9.43278 125.664 10.4067H123.961C123.909 9.84945 123.667 9.40934 123.234 9.08643C122.807 8.76351 122.253 8.60205 121.57 8.60205C120.893 8.60205 120.341 8.7583 119.914 9.0708C119.492 9.3833 119.281 9.78955 119.281 10.2896C119.281 10.6854 119.44 11.0109 119.758 11.2661C120.076 11.5161 120.599 11.7323 121.328 11.9146L122.57 12.2192C123.727 12.4901 124.56 12.8729 125.07 13.3677C125.586 13.8573 125.844 14.5161 125.844 15.3442C125.844 16.3963 125.453 17.2323 124.672 17.8521C123.891 18.4666 122.831 18.7739 121.492 18.7739C120.237 18.7739 119.219 18.4744 118.438 17.8755C117.661 17.2713 117.247 16.4614 117.195 15.4458ZM140.703 18.5864H138.953V13.5942H133.164V18.5864H131.414V7.31299H133.164V12.0786H138.953V7.31299H140.703V18.5864Z" fill="#1e1e1e"/>
<rect x="80" y="7.58643" width="4" height="10" rx="0.5" fill="#0B9D60"/>
</svg>
