<svg width="59" height="26" viewBox="0 0 59 26" fill="none" xmlns="http://www.w3.org/2000/svg">
<path d="M52.4744 20.9849L52.4746 20.9849C53.8618 20.4581 55.158 19.898 56.3622 19.3251C58.0427 18.5256 58.5483 16.3673 57.3396 14.9195L56.572 15.5604L57.3396 14.9195C54.7877 11.8628 50.6576 7.87089 44.6125 5.07982L44.6125 5.0798C38.2444 2.14003 32.4935 1.82857 29.2365 1.65216L29.1474 1.64734C29.1473 1.64734 29.1473 1.64733 29.1473 1.64733C26.3244 1.49394 23.7608 1.63581 21.4378 2.01065C9.15797 3.96255 3.77934 12.1578 1.90315 16.001C1.09242 17.6617 2.12951 19.4276 3.76025 19.8513C4.73729 20.1052 5.80552 20.3768 6.95398 20.6603C9.64506 21.3247 11.8597 21.8264 13.3272 22.1502L13.3549 22.1563C17.011 22.963 18.8804 23.3756 20.9245 23.7023C25.2558 24.3954 28.6538 24.5249 29.7314 24.5575C32.7393 24.6483 36.7462 24.5557 41.4544 23.8376C44.6063 23.3793 48.3793 22.5393 52.4744 20.9849Z" fill="#F3F3F3" stroke="#14141D" stroke-width="2"/>
<path d="M50.7583 13.8793C50.7583 13.8793 48.6059 18.0892 43.1979 20.5492C45.0322 18.9797 47.6199 15.9046 44.4914 12.84C40.0062 8.47133 23.1033 8.57737 18.1511 12.3204C15.4363 14.3773 15.4791 16.7212 17.0486 18.6194C13.5809 17.3364 11.418 16.2227 11.418 16.2227C11.418 16.2227 14.1328 4.21924 32.0111 5.0248C46.56 5.68213 50.7588 13.8793 50.7588 13.8793H50.7583Z" fill="#999999"/>
<path d="M44.7868 10.1636C44.7868 10.49 44.7763 10.8065 44.7446 11.1224C44.6919 11.8602 44.5748 12.5769 44.3949 13.272V13.2825C43.0802 18.3829 38.5944 22.2298 33.1442 22.63C32.996 22.6511 32.8472 22.6617 32.6884 22.6511H32.6568C32.201 22.6195 31.7558 22.5773 31.3099 22.5246C31.2783 22.5246 31.2461 22.5246 31.225 22.514C30.5038 22.4507 29.7616 22.3769 28.9982 22.2714C28.8816 22.2292 28.7756 22.1976 28.659 22.1659H28.6484C23.9827 20.8063 20.4302 16.8335 19.7307 11.9435C19.6457 11.3639 19.6035 10.7632 19.6035 10.1625C19.6035 9.26696 19.699 8.39201 19.8794 7.5487C20.1322 6.36007 20.6616 5.46519 21.2725 4.52399C21.5812 4.04838 22.079 3.72382 22.6412 3.65082C24.6545 3.38944 26.8552 3.30197 29.2568 3.43061C34.9759 3.72435 39.6772 4.8659 43.5059 6.38025C44.049 6.59506 44.4786 7.04602 44.5762 7.62186C44.6402 7.99974 44.6694 8.37081 44.7247 8.87668C44.7668 9.29806 44.7885 9.73054 44.7885 10.1625L44.7868 10.1636Z" fill="#14141D"/>
<path d="M22.6495 10.7101C22.4255 10.7683 22.3086 10.9916 22.367 11.2155C22.8227 12.9606 25.1007 20.0807 31.8955 19.8789C38.9664 19.669 41.9772 13.3201 42.446 12.2211C42.4912 12.1153 42.4926 12.0002 42.4438 11.896C42.184 11.3412 41.1285 9.63355 38.3727 10.8335C35.1149 12.2514 33.4283 15.0317 29.174 12.3191C25.8571 10.2047 23.5189 10.4842 22.6495 10.7101Z" fill="#0B9D60"/>
</svg>
