<?xml version="1.0" encoding="UTF-8"?>
<svg id="Layer_2" data-name="Layer 2" xmlns="http://www.w3.org/2000/svg" viewBox="0 0 1361.7 1361.7">
  <defs>
    <style>
      .cls-1 {
        fill: #0b9c60;
      }

      .cls-2 {
        fill: #f2f2f2;
      }

      .cls-3 {
        fill: #14141d;
      }

      .cls-4 {
        fill: #201e2b;
      }

      .cls-5 {
        fill: #989898;
      }
    </style>
  </defs>
  <g id="Layer_2-2" data-name="Layer 2">
    <rect class="cls-4" x="0" y="0" width="1361.7" height="1361.7" rx="266.36" ry="266.36"/>
    <g>
      <path class="cls-3" d="M565.08,429.88c249.3-17.5,528.9,69.4,685.1,272.2,84.9,110.3-98.3,159.4-174,182.1-271.5,81.6-523.4,52.5-793.7-12.1-38.6-9.2-148.4-30.1-172.2-54.6-50.2-51.6,2.2-123.9,36.9-169.9,100.9-133.8,251.6-206.1,417.9-217.8v.1Z"/>
      <path class="cls-2" d="M569.08,470.38c205.1-14.4,406.1,37.9,563.7,170.8,21.3,18,94.1,85.7,97,109.8,4.2,34.7-32.2,43.4-57.9,55-250.8,113.2-533.1,101.1-796.4,45.9-53.4-11.2-180.7-34.4-224.2-55.2-40.1-19.1-14.9-56.2.9-83.3,86.4-148.3,248.4-231.2,416.9-243.1v.1Z"/>
      <path class="cls-3" d="M978.88,582.58c18.3,19.1,13.4,66.4,5.7,90.4l-9.8,6.7c-60.4,269-455.5,253.9-498.1-16.2-1.1-7-2.9-12.8-10.2-15.1-6.6-15.1-3.5-80.3,14.3-90.2,15.9-54.3,35.6-69.2,90.9-73.1,103.4-7.2,238.9,11.1,337.3,43.6,19.4,6.4,60.8,17.7,68,37.5,2.2,6.1.8,11.3,1.8,16.2l.1.2Z"/>
      <path class="cls-5" d="M480.88,558.28c-10.2,34.9-9.7,69.6-4,105.3-5.7-19.1-11.9-11.5-25.6-3.3-30.3,18.1-54.6,49.4-51.4,86.3,1.5,18.1,12.5,30,16.2,46.6-29.3-16.1-72.4-26.4-100.1-43.6-4.5-2.8-8.9-3.5-8.6-10.2.4-8.7,18.8-43,24.4-52.7,33.1-57,87.5-104.4,149-128.3l.1-.1Z"/>
      <path class="cls-5" d="M978.88,582.58c48,30.5,94.4,66.2,124.2,115.4-32,53.9-82.2,102.8-140.4,127.5-4.1-3.9,21.2-27.7,25.1-33.6,22.5-34.8,25.8-65.8,1.8-100.5-4-5.8-5.8-12-14.7-11.6,8.1-35.9,11.2-60.2,4-97.2h0Z"/>
      <path class="cls-1" d="M876.68,628.08c25.6-3.7,66.1,12.1,55.9,43.8-2.9,8.9-26,43.3-33,52.1-104.8,132.4-289.4,130.8-355.9-36.2-19.1-47.8-28.1-61.4,32.3-56.6,63.7,5.2,103.9,61,166.2,56.8,47.1-3.2,89.6-53.5,134.5-60v.1Z"/>
    </g>
  </g>
</svg>