<?xml version="1.0" encoding="utf-8"?>

<svg version="1.0" xmlns="http://www.w3.org/2000/svg"
 width="16px" height="16px" viewBox="0 0 2400.000000 2400.000000"
 preserveAspectRatio="xMidYMid meet" style="background: #fff">

<g transform="translate(0.000000,2400.000000) scale(0.100000,-0.100000)"
fill="#000000" stroke="#fff">
<path d="M0 12000 l0 -12000 12000 0 12000 0 0 12000 0 12000 -12000 0 -12000
0 0 -12000z m9557 6795 c56 -28 95 -77 112 -140 8 -28 11 -683 11 -2181 0
-2363 5 -2195 -62 -2263 -18 -18 -49 -41 -70 -52 -36 -19 -87 -19 -2213 -19
-1944 0 -2180 2 -2213 16 -47 19 -88 58 -113 106 -19 36 -19 92 -19 2213 0
1944 2 2180 16 2213 20 49 60 90 109 113 39 18 119 19 2216 19 l2175 0 51 -25z
m9188 -4 c49 -23 89 -64 109 -113 14 -33 16 -268 16 -2210 l0 -2172 -21 -43
c-25 -51 -76 -96 -128 -112 -28 -8 -610 -11 -2204 -11 l-2165 0 -53 28 c-39
20 -62 41 -84 77 l-30 48 -3 2175 -2 2175 24 52 c23 51 67 94 116 114 16 6
797 10 2205 10 2101 1 2181 0 2220 -18z m-4584 -4619 c39 -20 62 -41 84 -77
l30 -48 3 -2176 c3 -2422 8 -2227 -65 -2292 -73 -64 101 -59 -2278 -59 -1944
0 -2180 2 -2213 16 -49 20 -90 60 -113 109 -18 39 -19 119 -19 2214 l0 2175
21 43 c24 49 79 99 124 112 17 5 983 10 2201 10 l2172 1 53 -28z m-4583 -4584
c22 -15 54 -49 69 -75 l28 -48 3 -2160 c2 -2423 9 -2229 -72 -2303 -24 -22
-61 -45 -82 -51 -57 -16 -4332 -15 -4385 0 -52 16 -103 61 -128 112 l-21 43 0
2176 c0 2391 -5 2212 62 2274 73 69 -139 63 2289 61 l2195 -2 42 -27z m9182 2
c24 -14 58 -45 75 -68 l30 -44 3 -2176 c2 -1548 0 -2188 -8 -2215 -14 -47 -62
-102 -111 -128 -37 -19 -80 -19 -2219 -19 -1946 0 -2185 2 -2218 15 -47 20
-78 50 -105 100 l-22 40 -3 2150 c-2 1183 0 2169 3 2192 7 46 48 114 85 140
62 44 -18 42 2270 40 l2175 -2 45 -25z"/>
</g>
</svg>
