<svg width="442" height="51" viewBox="0 0 442 51" fill="none" xmlns="http://www.w3.org/2000/svg">
<path d="M21.4082 35.8496C21.8867 35.4167 22.2171 34.9154 22.3994 34.3457C22.5817 33.7533 22.5817 33.1836 22.3994 32.6367C22.2399 33.7305 21.7614 34.6419 20.9639 35.3711C20.3714 35.9408 19.4372 36.3737 18.1611 36.6699C18.708 36.8066 19.2777 36.8066 19.8701 36.6699C20.4398 36.5332 20.9525 36.2598 21.4082 35.8496ZM7.12109 35.6104C7.48568 35.5192 8.03255 35.4395 8.76172 35.3711C9.49089 35.3255 10.0605 35.2686 10.4707 35.2002C9.92383 35.0407 9.35417 34.9268 8.76172 34.8584C8.14648 34.79 7.55404 34.8242 6.98438 34.9609C6.27799 35.1204 5.73112 35.4053 5.34375 35.8154C4.88802 36.2256 4.62598 36.7611 4.55762 37.4219C4.9222 36.8522 5.28678 36.4421 5.65137 36.1914C6.03874 35.9408 6.52865 35.7471 7.12109 35.6104ZM13.1709 4.47266C13.8773 4.26758 14.6748 4.09668 15.5635 3.95996L16.1787 3.85742L16.7939 3.75488L18.0244 3.65234C16.3838 3.51562 14.7318 3.61816 13.0684 3.95996C11.3366 4.32454 9.78711 4.95117 8.41992 5.83984C6.87044 6.84245 5.74251 8.08431 5.03613 9.56543L4.79688 10.1465L4.55762 10.7275L4.25 11.958L4.11328 13.1885V14.4189C4.36393 12.4593 4.81966 10.9212 5.48047 9.80469C6.27799 8.4375 7.38314 7.29818 8.7959 6.38672C9.98079 5.61198 11.4391 4.97396 13.1709 4.47266ZM18.1611 16.2646C19.0042 16.6976 20.7018 17.1989 23.2539 17.7686C26.9225 18.5661 29.9873 20.0472 32.4482 22.2119C34.7725 24.2171 36.3447 26.6097 37.165 29.3896C37.9626 32.1468 37.9284 34.904 37.0625 37.6611C36.151 40.5778 34.4079 43.1527 31.833 45.3857C29.3037 47.5732 26.182 48.986 22.4678 49.624C19.0498 50.2165 15.6432 50.1025 12.248 49.2822C8.89844 48.4391 6.24382 47.0833 4.28418 45.2148C2.16504 43.2096 1.27637 40.9424 1.61816 38.4131C2.34733 32.8304 6.71094 31.1556 14.709 33.3887C16.3268 33.8216 17.5117 34.0267 18.2637 34.0039C18.9017 34.0039 19.346 33.7988 19.5967 33.3887C20.1663 32.5456 19.1068 31.6911 16.418 30.8252C5.5944 27.2249 0.638346 21.2663 1.5498 12.9492C1.98275 9.02995 3.85124 5.99935 7.15527 3.85742C10.0947 1.94336 13.7064 0.986328 17.9902 0.986328C22.9805 0.963542 26.9909 2.18262 30.0215 4.64355C31.252 5.64616 32.152 6.7513 32.7217 7.95898C33.2686 9.09831 33.4508 10.1579 33.2686 11.1377C32.4255 15.4671 28.3239 16.7432 20.9639 14.9658L20.3486 14.8291L19.7334 14.6924C19.2777 14.6012 18.9017 14.5443 18.6055 14.5215C17.8535 14.4531 17.4206 14.6354 17.3066 15.0684C17.1699 15.5241 17.4548 15.9229 18.1611 16.2646ZM67.79 6.83105C68.0179 6.26139 68.2686 5.85124 68.542 5.60059C68.7015 5.46387 68.918 5.34993 69.1914 5.25879L69.5674 5.19043L69.9434 5.12207C69.2826 5.03092 68.7585 5.09928 68.3711 5.32715C67.9837 5.5778 67.6419 6.01074 67.3457 6.62598C66.9811 7.33236 66.6963 8.34635 66.4912 9.66797C66.2406 11.696 66.2406 13.7695 66.4912 15.8887L66.6621 14.3506L66.833 12.8125C66.9469 11.4909 67.0495 10.4769 67.1406 9.77051C67.3457 8.49447 67.5622 7.51465 67.79 6.83105ZM62.6631 33.0127C63.2327 32.876 63.7796 32.6139 64.3037 32.2266C65.2835 31.4518 65.8418 30.4492 65.9785 29.2188L65.5 29.9365C65.3405 30.1872 65.181 30.4036 65.0215 30.5859C64.6569 31.0417 64.2809 31.4176 63.8936 31.7139C63.4834 32.0329 63.0277 32.2949 62.5264 32.5C62.139 32.6823 61.6035 32.8532 60.9199 33.0127C61.4896 33.1494 62.0706 33.1494 62.6631 33.0127ZM49.2646 6.04492C49.7432 5.4069 50.2217 4.89421 50.7002 4.50684C51.3154 3.98275 51.9535 3.70931 52.6143 3.68652C51.9762 3.57259 51.2699 3.75488 50.4951 4.2334C49.971 4.59798 49.4242 5.09928 48.8545 5.7373C48.057 6.69434 47.305 7.95898 46.5986 9.53125C46.029 10.9212 45.5732 12.3112 45.2314 13.7012C44.8669 15.2279 44.6276 16.6748 44.5137 18.042L45.0947 15.9229C45.3226 15.1481 45.5277 14.4531 45.71 13.8379C46.2568 12.1973 46.7581 10.8529 47.2139 9.80469C47.8519 8.34635 48.5355 7.0931 49.2646 6.04492ZM64.9189 6.25C65.8076 3.7207 67.5166 2.46745 70.0459 2.49023C71.8232 2.51302 73.498 3.60677 75.0703 5.77148C76.5514 7.79948 77.7591 10.5452 78.6934 14.0088C80.7669 21.6878 80.9378 29.2757 79.2061 36.7725C78.2946 40.8057 76.1299 44.0299 72.7119 46.4453C69.5218 48.6784 65.8532 49.8633 61.7061 50C57.4906 50.1139 53.708 49.1227 50.3584 47.0264C46.6898 44.7021 44.1833 41.3981 42.8389 37.1143C41.7223 33.6279 41.1868 29.6973 41.2324 25.3223C41.278 21.1979 41.8021 17.2331 42.8047 13.4277C43.8529 9.6224 45.2201 6.61458 46.9062 4.4043C48.7292 2.01172 50.7002 0.895182 52.8193 1.05469C55.3258 1.25977 57.0804 2.45605 58.083 4.64355C59.4502 7.60579 59.5641 12.4707 58.4248 19.2383C57.9007 22.3145 57.8438 24.9007 58.2539 26.9971C58.6868 29.2301 59.5869 30.3581 60.9541 30.3809C63.3239 30.4036 64.3493 27.487 64.0303 21.6309C63.6429 14.2253 63.9391 9.09831 64.9189 6.25ZM120.563 6.04492C121.133 5.36133 121.68 4.83724 122.204 4.47266C122.797 4.01693 123.503 3.75488 124.323 3.68652C123.571 3.61816 122.808 3.78906 122.033 4.19922C121.464 4.51823 120.848 5.00814 120.188 5.66895C119.39 6.51204 118.422 7.74251 117.282 9.36035L116.633 10.3174L115.949 11.2744C115.448 11.9808 114.969 12.5732 114.514 13.0518C113.283 14.3506 111.973 15.057 110.583 15.1709C111.312 15.2393 112.087 15.1025 112.907 14.7607C113.568 14.4417 114.217 13.9974 114.855 13.4277C115.38 12.9492 115.915 12.3568 116.462 11.6504L117.146 10.6934L117.829 9.73633C118.9 8.16406 119.812 6.93359 120.563 6.04492ZM92.2969 11.4453C93.0488 9.89583 93.835 8.6084 94.6553 7.58301C95.8402 6.14746 97.082 5.36133 98.3809 5.22461C97.6061 5.17904 96.8542 5.36133 96.125 5.77148C95.4186 6.18164 94.8034 6.67155 94.2793 7.24121C93.3678 8.19824 92.502 9.50846 91.6816 11.1719C90.4056 13.8379 89.46 16.7773 88.8447 19.9902L89.2549 18.8965L89.665 17.8369C89.9157 17.1077 90.1777 16.3786 90.4512 15.6494C91.2031 13.8037 91.8184 12.4023 92.2969 11.4453ZM132.697 7.75391C134.839 12.0833 136.047 17.6546 136.32 24.4678C136.617 32.3747 136.206 38.4814 135.09 42.7881C133.814 47.6872 131.649 50.0911 128.596 50C126.796 49.9544 125.257 49.2025 123.981 47.7441C123.002 46.6276 122.102 45.0212 121.281 42.9248C121.031 42.2412 120.723 41.3639 120.358 40.293L120.153 39.6777L119.948 39.0625C119.812 38.6296 119.686 38.2536 119.572 37.9346C119.003 36.3395 118.456 35.4395 117.932 35.2344C117.362 35.0293 116.781 35.2458 116.188 35.8838C115.961 36.1344 115.687 36.4876 115.368 36.9434L114.924 37.5586L114.479 38.208C113.705 39.3701 113.021 40.2018 112.429 40.7031C111.54 41.4779 110.606 41.8538 109.626 41.8311C108.327 41.7855 107.211 41.2728 106.276 40.293C105.616 39.5638 104.989 38.5042 104.396 37.1143L104.089 36.2939L103.918 35.8838L103.781 35.5078C103.553 34.8698 103.371 34.4141 103.234 34.1406C102.824 33.2747 102.403 32.9215 101.97 33.0811C101.377 33.2861 100.739 34.2887 100.056 36.0889C99.9189 36.4307 99.7594 36.8522 99.5771 37.3535L99.3379 38.0371L99.0645 38.7549C98.6543 39.9398 98.2897 40.9082 97.9707 41.6602C96.9909 43.9388 95.9427 45.6136 94.8262 46.6846C93.3451 48.0518 91.6247 48.5303 89.665 48.1201C86.3154 47.4137 84.4469 43.9616 84.0596 37.7637C83.695 32.3177 84.4469 26.1654 86.3154 19.3066C89.2093 8.61979 93.0374 3.0485 97.7998 2.59277C99.5771 2.43327 101.298 3.03711 102.961 4.4043C104.283 5.47526 105.661 7.11589 107.097 9.32617C108.35 11.263 109.387 12.3112 110.207 12.4707C111.483 12.7441 112.998 11.5592 114.753 8.91602C116.804 5.88542 118.479 3.83464 119.777 2.76367C121.464 1.39648 123.343 0.849609 125.417 1.12305C128.243 1.48763 130.669 3.69792 132.697 7.75391ZM176.618 6.04492C177.188 5.36133 177.735 4.83724 178.259 4.47266C178.851 4.01693 179.558 3.75488 180.378 3.68652C179.626 3.61816 178.863 3.78906 178.088 4.19922C177.518 4.51823 176.903 5.00814 176.242 5.66895C175.445 6.51204 174.476 7.74251 173.337 9.36035L172.688 10.3174L172.004 11.2744C171.503 11.9808 171.024 12.5732 170.568 13.0518C169.338 14.3506 168.028 15.057 166.638 15.1709C167.367 15.2393 168.142 15.1025 168.962 14.7607C169.623 14.4417 170.272 13.9974 170.91 13.4277C171.434 12.9492 171.97 12.3568 172.517 11.6504L173.2 10.6934L173.884 9.73633C174.955 8.16406 175.866 6.93359 176.618 6.04492ZM148.352 11.4453C149.104 9.89583 149.89 8.6084 150.71 7.58301C151.895 6.14746 153.137 5.36133 154.436 5.22461C153.661 5.17904 152.909 5.36133 152.18 5.77148C151.473 6.18164 150.858 6.67155 150.334 7.24121C149.423 8.19824 148.557 9.50846 147.736 11.1719C146.46 13.8379 145.515 16.7773 144.899 19.9902L145.31 18.8965L145.72 17.8369C145.97 17.1077 146.232 16.3786 146.506 15.6494C147.258 13.8037 147.873 12.4023 148.352 11.4453ZM188.752 7.75391C190.894 12.0833 192.102 17.6546 192.375 24.4678C192.671 32.3747 192.261 38.4814 191.145 42.7881C189.868 47.6872 187.704 50.0911 184.65 50C182.85 49.9544 181.312 49.2025 180.036 47.7441C179.056 46.6276 178.156 45.0212 177.336 42.9248C177.085 42.2412 176.778 41.3639 176.413 40.293L176.208 39.6777L176.003 39.0625C175.866 38.6296 175.741 38.2536 175.627 37.9346C175.057 36.3395 174.51 35.4395 173.986 35.2344C173.417 35.0293 172.836 35.2458 172.243 35.8838C172.015 36.1344 171.742 36.4876 171.423 36.9434L170.979 37.5586L170.534 38.208C169.759 39.3701 169.076 40.2018 168.483 40.7031C167.595 41.4779 166.66 41.8538 165.681 41.8311C164.382 41.7855 163.265 41.2728 162.331 40.293C161.67 39.5638 161.044 38.5042 160.451 37.1143L160.144 36.2939L159.973 35.8838L159.836 35.5078C159.608 34.8698 159.426 34.4141 159.289 34.1406C158.879 33.2747 158.457 32.9215 158.024 33.0811C157.432 33.2861 156.794 34.2887 156.11 36.0889C155.974 36.4307 155.814 36.8522 155.632 37.3535L155.393 38.0371L155.119 38.7549C154.709 39.9398 154.344 40.9082 154.025 41.6602C153.046 43.9388 151.997 45.6136 150.881 46.6846C149.4 48.0518 147.679 48.5303 145.72 48.1201C142.37 47.4137 140.502 43.9616 140.114 37.7637C139.75 32.3177 140.502 26.1654 142.37 19.3066C145.264 8.61979 149.092 3.0485 153.854 2.59277C155.632 2.43327 157.352 3.03711 159.016 4.4043C160.337 5.47526 161.716 7.11589 163.151 9.32617C164.405 11.263 165.441 12.3112 166.262 12.4707C167.538 12.7441 169.053 11.5592 170.808 8.91602C172.858 5.88542 174.533 3.83464 175.832 2.76367C177.518 1.39648 179.398 0.849609 181.472 1.12305C184.297 1.48763 186.724 3.69792 188.752 7.75391ZM219.172 35.8496L219.685 35.6787C221.211 35.2002 222.567 34.8356 223.752 34.585C223.137 34.471 222.419 34.471 221.599 34.585C220.961 34.6533 220.254 34.8128 219.479 35.0635C219.206 35.1318 218.864 35.2572 218.454 35.4395L217.976 35.6104L217.497 35.8154C216.836 36.0433 216.153 36.2256 215.446 36.3623C216.107 36.499 216.836 36.4762 217.634 36.2939C217.907 36.2484 218.26 36.1572 218.693 36.0205L219.172 35.8496ZM206.457 5.22461C207.3 4.74609 208.246 4.37012 209.294 4.09668C210.16 3.84603 211.185 3.67513 212.37 3.58398C211.39 3.51562 210.342 3.58398 209.226 3.78906C208.132 3.99414 207.129 4.32454 206.218 4.78027C205.284 5.236 204.406 5.83984 203.586 6.5918C202.88 7.2526 202.23 8.11849 201.638 9.18945C200.703 10.8757 199.997 12.8695 199.519 15.1709C199.108 17.1533 198.892 19.2383 198.869 21.4258L199.074 19.8535C199.165 19.2611 199.257 18.7484 199.348 18.3154C199.553 17.2445 199.781 16.2305 200.031 15.2734C200.646 12.9036 201.376 10.9782 202.219 9.49707C202.766 8.51725 203.358 7.70833 203.996 7.07031C204.657 6.40951 205.477 5.79427 206.457 5.22461ZM215.856 22.2461L215.617 22.3486L215.07 22.5195L214.558 22.6904C214.877 22.8044 215.253 22.8499 215.686 22.8271C215.845 22.8271 216.039 22.8044 216.267 22.7588L216.54 22.7246L216.779 22.6904C217.098 22.6449 217.44 22.6107 217.805 22.5879C218.238 22.5879 218.602 22.6221 218.898 22.6904C218.693 22.3942 218.352 22.1891 217.873 22.0752C217.531 21.984 217.132 21.9727 216.677 22.041C216.517 22.0638 216.335 22.1094 216.13 22.1777L215.856 22.2461ZM214.387 33.5254C215.207 33.8444 216.21 33.776 217.395 33.3203C221.268 31.862 224.299 31.5544 226.486 32.3975C228.56 33.195 229.585 34.904 229.562 37.5244C229.54 39.484 228.594 41.4437 226.726 43.4033C224.925 45.249 222.624 46.7757 219.821 47.9834C216.95 49.2367 214.113 49.9089 211.311 50C208.234 50.0911 205.648 49.4531 203.552 48.0859C201.387 46.696 199.632 44.0186 198.288 40.0537C197.035 36.3623 196.306 32.1468 196.101 27.4072C195.918 22.6449 196.306 18.2812 197.263 14.3164C198.311 10.0098 199.883 6.86523 201.979 4.88281C204.258 2.74089 207.015 1.46484 210.251 1.05469C213.122 0.712891 215.982 1.05469 218.83 2.08008C221.542 3.08268 223.592 4.46126 224.982 6.21582C226.441 8.06152 226.771 9.88444 225.974 11.6846C225.518 12.7327 224.709 13.4961 223.547 13.9746C222.727 14.3164 221.553 14.5443 220.026 14.6582L219.104 14.7266L218.146 14.7607C217.395 14.8063 216.791 14.8633 216.335 14.9316C215.013 15.0911 214.034 15.4102 213.396 15.8887C212.963 16.2077 212.666 16.6406 212.507 17.1875C212.37 17.7116 212.382 18.2243 212.541 18.7256C212.974 19.9105 213.942 20.3092 215.446 19.9219C217.224 19.4661 218.75 19.5915 220.026 20.2979C221.28 20.9814 221.952 22.0296 222.043 23.4424C222.134 24.9691 221.644 26.2223 220.573 27.2021C219.388 28.2731 217.577 28.9225 215.139 29.1504C214.318 29.2415 213.703 29.5947 213.293 30.21C212.928 30.8024 212.837 31.429 213.02 32.0898C213.225 32.7962 213.68 33.2747 214.387 33.5254ZM253.625 24.7412C254.263 24.4906 254.844 24.1032 255.368 23.5791C256.394 22.4398 256.781 21.1637 256.53 19.751C256.188 21.141 255.63 22.2575 254.855 23.1006C254.012 24.0348 252.93 24.6387 251.608 24.9121C252.269 25.0488 252.941 24.9919 253.625 24.7412ZM250.139 17.666C249.706 18.1673 249.466 18.7826 249.421 19.5117C249.398 20.2409 249.603 20.8675 250.036 21.3916C250.446 21.9385 250.959 22.2233 251.574 22.2461C252.167 22.2689 252.691 22.0296 253.146 21.5283C253.602 21.027 253.841 20.4118 253.864 19.6826C253.887 18.9535 253.693 18.3154 253.283 17.7686C252.873 17.2445 252.36 16.971 251.745 16.9482C251.13 16.9255 250.594 17.1647 250.139 17.666ZM242.004 8.16406C243.189 6.79688 244.499 5.7487 245.935 5.01953C247.347 4.29036 248.977 3.84603 250.822 3.68652C250.025 3.61816 249.159 3.65234 248.225 3.78906C247.359 3.94857 246.516 4.21061 245.695 4.5752C244.191 5.21322 242.79 6.26139 241.491 7.71973C240.397 9.01855 239.475 10.5111 238.723 12.1973C238.016 13.8151 237.504 15.4671 237.185 17.1533C237.868 15.262 238.54 13.6784 239.201 12.4023C240.09 10.6934 241.024 9.2806 242.004 8.16406ZM265.861 31.4404C266.932 32.6253 267.878 33.9014 268.698 35.2686C269.951 37.4105 270.578 39.484 270.578 41.4893C270.578 43.2894 270.1 44.9072 269.143 46.3428C268.277 47.6416 267.149 48.6214 265.759 49.2822C264.392 49.943 263.047 50.1481 261.726 49.8975C258.604 49.305 256.28 47.5049 254.753 44.4971C254.502 43.973 254.229 43.3577 253.933 42.6514L253.591 41.7285L253.249 40.874C252.702 39.484 252.189 38.5156 251.711 37.9688C250.913 37.0573 250.31 36.875 249.899 37.4219C249.33 38.1738 248.988 40.3044 248.874 43.8135C248.806 45.7048 248.202 47.2087 247.062 48.3252C245.992 49.3506 244.681 49.8405 243.132 49.7949C241.491 49.7493 239.976 49.1227 238.586 47.915C237.014 46.5479 235.84 44.6566 235.065 42.2412C233.767 38.2536 233.094 33.8216 233.049 28.9453C233.003 23.9095 233.653 19.2839 234.997 15.0684C236.478 10.4427 238.62 6.9222 241.423 4.50684C244.567 1.77246 248.339 0.644531 252.736 1.12305C256.109 1.48763 258.923 2.58138 261.179 4.4043C263.229 6.09049 264.665 8.23242 265.485 10.8301C266.237 13.3138 266.34 15.9115 265.793 18.623C265.223 21.3574 264.038 23.8298 262.238 26.04C261.851 26.5186 261.771 26.9971 261.999 27.4756C262.159 27.8174 262.626 28.3529 263.4 29.082L263.674 29.3213L263.947 29.5605C264.175 29.7656 264.38 29.9479 264.562 30.1074C265.041 30.5632 265.474 31.0075 265.861 31.4404ZM307.424 35.8496C307.902 35.4167 308.233 34.9154 308.415 34.3457C308.597 33.7533 308.597 33.1836 308.415 32.6367C308.256 33.7305 307.777 34.6419 306.979 35.3711C306.387 35.9408 305.453 36.3737 304.177 36.6699C304.724 36.8066 305.293 36.8066 305.886 36.6699C306.455 36.5332 306.968 36.2598 307.424 35.8496ZM293.137 35.6104C293.501 35.5192 294.048 35.4395 294.777 35.3711C295.507 35.3255 296.076 35.2686 296.486 35.2002C295.939 35.0407 295.37 34.9268 294.777 34.8584C294.162 34.79 293.57 34.8242 293 34.9609C292.294 35.1204 291.747 35.4053 291.359 35.8154C290.904 36.2256 290.642 36.7611 290.573 37.4219C290.938 36.8522 291.302 36.4421 291.667 36.1914C292.054 35.9408 292.544 35.7471 293.137 35.6104ZM299.187 4.47266C299.893 4.26758 300.69 4.09668 301.579 3.95996L302.194 3.85742L302.81 3.75488L304.04 3.65234C302.399 3.51562 300.747 3.61816 299.084 3.95996C297.352 4.32454 295.803 4.95117 294.436 5.83984C292.886 6.84245 291.758 8.08431 291.052 9.56543L290.812 10.1465L290.573 10.7275L290.266 11.958L290.129 13.1885V14.4189C290.38 12.4593 290.835 10.9212 291.496 9.80469C292.294 8.4375 293.399 7.29818 294.812 6.38672C295.996 5.61198 297.455 4.97396 299.187 4.47266ZM304.177 16.2646C305.02 16.6976 306.717 17.1989 309.27 17.7686C312.938 18.5661 316.003 20.0472 318.464 22.2119C320.788 24.2171 322.36 26.6097 323.181 29.3896C323.978 32.1468 323.944 34.904 323.078 37.6611C322.167 40.5778 320.424 43.1527 317.849 45.3857C315.319 47.5732 312.198 48.986 308.483 49.624C305.065 50.2165 301.659 50.1025 298.264 49.2822C294.914 48.4391 292.259 47.0833 290.3 45.2148C288.181 43.2096 287.292 40.9424 287.634 38.4131C288.363 32.8304 292.727 31.1556 300.725 33.3887C302.342 33.8216 303.527 34.0267 304.279 34.0039C304.917 34.0039 305.362 33.7988 305.612 33.3887C306.182 32.5456 305.122 31.6911 302.434 30.8252C291.61 27.2249 286.654 21.2663 287.565 12.9492C287.998 9.02995 289.867 5.99935 293.171 3.85742C296.11 1.94336 299.722 0.986328 304.006 0.986328C308.996 0.963542 313.007 2.18262 316.037 4.64355C317.268 5.64616 318.168 6.7513 318.737 7.95898C319.284 9.09831 319.466 10.1579 319.284 11.1377C318.441 15.4671 314.34 16.7432 306.979 14.9658L306.364 14.8291L305.749 14.6924C305.293 14.6012 304.917 14.5443 304.621 14.5215C303.869 14.4531 303.436 14.6354 303.322 15.0684C303.186 15.5241 303.47 15.9229 304.177 16.2646ZM349.602 32.124C350.103 31.9873 350.593 31.7367 351.071 31.3721C352.028 30.6201 352.587 29.6973 352.746 28.6035C352.017 29.6061 351.333 30.3581 350.695 30.8594C349.898 31.4746 348.986 31.9076 347.961 32.1582C348.485 32.2949 349.032 32.2835 349.602 32.124ZM346.354 28.125C346.514 28.763 346.856 29.196 347.38 29.4238C347.904 29.6289 348.451 29.5605 349.021 29.2188C349.59 28.8542 350.012 28.3301 350.285 27.6465C350.559 26.9401 350.616 26.2679 350.456 25.6299C350.274 24.9919 349.921 24.5703 349.396 24.3652C348.872 24.1602 348.326 24.2285 347.756 24.5703C347.186 24.9121 346.765 25.4362 346.491 26.1426C346.218 26.8262 346.172 27.487 346.354 28.125ZM338.732 15.7861C339.963 13.8037 341.011 12.2201 341.877 11.0352C343.107 9.32617 344.304 7.86784 345.466 6.66016L345.979 6.14746C346.161 5.96517 346.332 5.81706 346.491 5.70312L347.038 5.22461L347.585 4.81445C348.542 4.17643 349.408 3.82324 350.183 3.75488C349.431 3.70931 348.508 3.97135 347.414 4.54102L346.799 4.91699L346.218 5.36133C346.058 5.47526 345.876 5.62337 345.671 5.80566L345.124 6.28418C343.916 7.37793 342.652 8.83626 341.33 10.6592C340.191 12.2542 339.177 13.8835 338.288 15.5469C337.331 17.347 336.522 19.0788 335.861 20.7422L337.297 18.2471C337.844 17.3128 338.322 16.4925 338.732 15.7861ZM340.954 7.27539C344.668 2.74089 348.007 0.701497 350.969 1.15723C353.931 1.63574 356.711 4.22201 359.309 8.91602C361.587 13.0859 363.387 18.2243 364.709 24.3311C365.985 30.21 366.498 35.4508 366.247 40.0537C365.974 44.9756 364.857 47.8809 362.897 48.7695C361.234 49.5215 359.571 49.5443 357.907 48.8379C356.654 48.291 355.253 47.2542 353.703 45.7275L352.78 44.7363L351.857 43.7793C351.105 42.959 350.536 42.3665 350.148 42.002C348.895 40.7943 347.847 40.1904 347.004 40.1904C346.184 40.1904 345.17 40.8285 343.962 42.1045C343.62 42.4691 343.073 43.0957 342.321 43.9844L341.433 45.0098C341.091 45.3971 340.772 45.7503 340.476 46.0693C338.949 47.6872 337.502 48.7923 336.135 49.3848C334.312 50.1823 332.432 50.2051 330.495 49.4531C327.92 48.4733 326.872 45.2832 327.351 39.8828C327.784 34.9609 329.322 29.3327 331.965 22.998C334.631 16.6178 337.627 11.377 340.954 7.27539ZM393.112 34.4482C393.819 34.3571 394.65 34.2887 395.607 34.2432C396.61 34.1976 397.442 34.1976 398.103 34.2432C396.758 33.7191 395.072 33.571 393.044 33.7988C392.155 33.9128 391.324 34.0723 390.549 34.2773L389.934 34.4482L389.318 34.6533C388.84 34.8128 388.441 34.9154 388.122 34.9609C388.441 35.0293 388.863 35.0293 389.387 34.9609L390.651 34.79L391.882 34.6191L393.112 34.4482ZM376.774 6.31836C377.139 5.68034 377.469 5.17904 377.766 4.81445C378.244 4.19922 378.711 3.83464 379.167 3.7207C378.871 3.7207 378.575 3.81185 378.278 3.99414C378.073 4.13086 377.823 4.32454 377.526 4.5752C377.116 4.98535 376.717 5.48665 376.33 6.0791C375.715 7.01335 375.168 8.12988 374.689 9.42871C373.846 11.7985 373.334 14.2253 373.151 16.709L373.664 14.9316L374.177 13.1543C374.587 11.8099 374.963 10.6478 375.305 9.66797C375.738 8.46029 376.228 7.34375 376.774 6.31836ZM385.593 28.1592C385.866 31.3493 386.949 32.7051 388.84 32.2266C393.374 31.11 397.02 31.0303 399.777 31.9873C402.785 33.0127 404.152 35.0977 403.879 38.2422C403.742 40.1562 402.557 42.0589 400.324 43.9502C398.228 45.7503 395.619 47.2087 392.497 48.3252C389.239 49.4873 386.105 50.0456 383.098 50C379.771 49.9316 377.071 49.1113 374.997 47.5391C372.787 45.8757 371.226 42.5033 370.314 37.4219C369.494 32.7962 369.335 27.6351 369.836 21.9385C370.337 16.2419 371.374 11.4795 372.946 7.65137C374.655 3.43587 376.672 1.25977 378.996 1.12305C382.095 0.940755 384.134 2.5472 385.114 5.94238C385.798 8.28939 386.037 12.0264 385.832 17.1533L385.764 18.6914L385.695 20.1953C385.627 21.4714 385.581 22.4398 385.559 23.1006C385.467 25.2653 385.479 26.9515 385.593 28.1592ZM430.676 35.8496L431.188 35.6787C432.715 35.2002 434.071 34.8356 435.256 34.585C434.641 34.471 433.923 34.471 433.103 34.585C432.465 34.6533 431.758 34.8128 430.983 35.0635C430.71 35.1318 430.368 35.2572 429.958 35.4395L429.479 35.6104L429.001 35.8154C428.34 36.0433 427.657 36.2256 426.95 36.3623C427.611 36.499 428.34 36.4762 429.138 36.2939C429.411 36.2484 429.764 36.1572 430.197 36.0205L430.676 35.8496ZM417.961 5.22461C418.804 4.74609 419.75 4.37012 420.798 4.09668C421.664 3.84603 422.689 3.67513 423.874 3.58398C422.894 3.51562 421.846 3.58398 420.729 3.78906C419.636 3.99414 418.633 4.32454 417.722 4.78027C416.787 5.236 415.91 5.83984 415.09 6.5918C414.383 7.2526 413.734 8.11849 413.142 9.18945C412.207 10.8757 411.501 12.8695 411.022 15.1709C410.612 17.1533 410.396 19.2383 410.373 21.4258L410.578 19.8535C410.669 19.2611 410.76 18.7484 410.852 18.3154C411.057 17.2445 411.285 16.2305 411.535 15.2734C412.15 12.9036 412.88 10.9782 413.723 9.49707C414.27 8.51725 414.862 7.70833 415.5 7.07031C416.161 6.40951 416.981 5.79427 417.961 5.22461ZM427.36 22.2461L427.121 22.3486L426.574 22.5195L426.062 22.6904C426.381 22.8044 426.757 22.8499 427.189 22.8271C427.349 22.8271 427.543 22.8044 427.771 22.7588L428.044 22.7246L428.283 22.6904C428.602 22.6449 428.944 22.6107 429.309 22.5879C429.742 22.5879 430.106 22.6221 430.402 22.6904C430.197 22.3942 429.855 22.1891 429.377 22.0752C429.035 21.984 428.636 21.9727 428.181 22.041C428.021 22.0638 427.839 22.1094 427.634 22.1777L427.36 22.2461ZM425.891 33.5254C426.711 33.8444 427.714 33.776 428.898 33.3203C432.772 31.862 435.803 31.5544 437.99 32.3975C440.064 33.195 441.089 34.904 441.066 37.5244C441.044 39.484 440.098 41.4437 438.229 43.4033C436.429 45.249 434.128 46.7757 431.325 47.9834C428.454 49.2367 425.617 49.9089 422.814 50C419.738 50.0911 417.152 49.4531 415.056 48.0859C412.891 46.696 411.136 44.0186 409.792 40.0537C408.539 36.3623 407.81 32.1468 407.604 27.4072C407.422 22.6449 407.81 18.2812 408.767 14.3164C409.815 10.0098 411.387 6.86523 413.483 4.88281C415.762 2.74089 418.519 1.46484 421.755 1.05469C424.626 0.712891 427.486 1.05469 430.334 2.08008C433.046 3.08268 435.096 4.46126 436.486 6.21582C437.945 8.06152 438.275 9.88444 437.478 11.6846C437.022 12.7327 436.213 13.4961 435.051 13.9746C434.23 14.3164 433.057 14.5443 431.53 14.6582L430.607 14.7266L429.65 14.7607C428.898 14.8063 428.295 14.8633 427.839 14.9316C426.517 15.0911 425.537 15.4102 424.899 15.8887C424.466 16.2077 424.17 16.6406 424.011 17.1875C423.874 17.7116 423.885 18.2243 424.045 18.7256C424.478 19.9105 425.446 20.3092 426.95 19.9219C428.728 19.4661 430.254 19.5915 431.53 20.2979C432.784 20.9814 433.456 22.0296 433.547 23.4424C433.638 24.9691 433.148 26.2223 432.077 27.2021C430.892 28.2731 429.081 28.9225 426.643 29.1504C425.822 29.2415 425.207 29.5947 424.797 30.21C424.432 30.8024 424.341 31.429 424.523 32.0898C424.729 32.7962 425.184 33.2747 425.891 33.5254Z" fill="url(#paint0_linear_3_20)"/>
<path d="M21.4082 35.8496C21.8867 35.4167 22.2171 34.9154 22.3994 34.3457C22.5817 33.7533 22.5817 33.1836 22.3994 32.6367C22.2399 33.7305 21.7614 34.6419 20.9639 35.3711C20.3714 35.9408 19.4372 36.3737 18.1611 36.6699C18.708 36.8066 19.2777 36.8066 19.8701 36.6699C20.4398 36.5332 20.9525 36.2598 21.4082 35.8496ZM7.12109 35.6104C7.48568 35.5192 8.03255 35.4395 8.76172 35.3711C9.49089 35.3255 10.0605 35.2686 10.4707 35.2002C9.92383 35.0407 9.35417 34.9268 8.76172 34.8584C8.14648 34.79 7.55404 34.8242 6.98438 34.9609C6.27799 35.1204 5.73112 35.4053 5.34375 35.8154C4.88802 36.2256 4.62598 36.7611 4.55762 37.4219C4.9222 36.8522 5.28678 36.4421 5.65137 36.1914C6.03874 35.9408 6.52865 35.7471 7.12109 35.6104ZM13.1709 4.47266C13.8773 4.26758 14.6748 4.09668 15.5635 3.95996L16.1787 3.85742L16.7939 3.75488L18.0244 3.65234C16.3838 3.51562 14.7318 3.61816 13.0684 3.95996C11.3366 4.32454 9.78711 4.95117 8.41992 5.83984C6.87044 6.84245 5.74251 8.08431 5.03613 9.56543L4.79688 10.1465L4.55762 10.7275L4.25 11.958L4.11328 13.1885V14.4189C4.36393 12.4593 4.81966 10.9212 5.48047 9.80469C6.27799 8.4375 7.38314 7.29818 8.7959 6.38672C9.98079 5.61198 11.4391 4.97396 13.1709 4.47266ZM18.1611 16.2646C19.0042 16.6976 20.7018 17.1989 23.2539 17.7686C26.9225 18.5661 29.9873 20.0472 32.4482 22.2119C34.7725 24.2171 36.3447 26.6097 37.165 29.3896C37.9626 32.1468 37.9284 34.904 37.0625 37.6611C36.151 40.5778 34.4079 43.1527 31.833 45.3857C29.3037 47.5732 26.182 48.986 22.4678 49.624C19.0498 50.2165 15.6432 50.1025 12.248 49.2822C8.89844 48.4391 6.24382 47.0833 4.28418 45.2148C2.16504 43.2096 1.27637 40.9424 1.61816 38.4131C2.34733 32.8304 6.71094 31.1556 14.709 33.3887C16.3268 33.8216 17.5117 34.0267 18.2637 34.0039C18.9017 34.0039 19.346 33.7988 19.5967 33.3887C20.1663 32.5456 19.1068 31.6911 16.418 30.8252C5.5944 27.2249 0.638346 21.2663 1.5498 12.9492C1.98275 9.02995 3.85124 5.99935 7.15527 3.85742C10.0947 1.94336 13.7064 0.986328 17.9902 0.986328C22.9805 0.963542 26.9909 2.18262 30.0215 4.64355C31.252 5.64616 32.152 6.7513 32.7217 7.95898C33.2686 9.09831 33.4508 10.1579 33.2686 11.1377C32.4255 15.4671 28.3239 16.7432 20.9639 14.9658L20.3486 14.8291L19.7334 14.6924C19.2777 14.6012 18.9017 14.5443 18.6055 14.5215C17.8535 14.4531 17.4206 14.6354 17.3066 15.0684C17.1699 15.5241 17.4548 15.9229 18.1611 16.2646ZM67.79 6.83105C68.0179 6.26139 68.2686 5.85124 68.542 5.60059C68.7015 5.46387 68.918 5.34993 69.1914 5.25879L69.5674 5.19043L69.9434 5.12207C69.2826 5.03092 68.7585 5.09928 68.3711 5.32715C67.9837 5.5778 67.6419 6.01074 67.3457 6.62598C66.9811 7.33236 66.6963 8.34635 66.4912 9.66797C66.2406 11.696 66.2406 13.7695 66.4912 15.8887L66.6621 14.3506L66.833 12.8125C66.9469 11.4909 67.0495 10.4769 67.1406 9.77051C67.3457 8.49447 67.5622 7.51465 67.79 6.83105ZM62.6631 33.0127C63.2327 32.876 63.7796 32.6139 64.3037 32.2266C65.2835 31.4518 65.8418 30.4492 65.9785 29.2188L65.5 29.9365C65.3405 30.1872 65.181 30.4036 65.0215 30.5859C64.6569 31.0417 64.2809 31.4176 63.8936 31.7139C63.4834 32.0329 63.0277 32.2949 62.5264 32.5C62.139 32.6823 61.6035 32.8532 60.9199 33.0127C61.4896 33.1494 62.0706 33.1494 62.6631 33.0127ZM49.2646 6.04492C49.7432 5.4069 50.2217 4.89421 50.7002 4.50684C51.3154 3.98275 51.9535 3.70931 52.6143 3.68652C51.9762 3.57259 51.2699 3.75488 50.4951 4.2334C49.971 4.59798 49.4242 5.09928 48.8545 5.7373C48.057 6.69434 47.305 7.95898 46.5986 9.53125C46.029 10.9212 45.5732 12.3112 45.2314 13.7012C44.8669 15.2279 44.6276 16.6748 44.5137 18.042L45.0947 15.9229C45.3226 15.1481 45.5277 14.4531 45.71 13.8379C46.2568 12.1973 46.7581 10.8529 47.2139 9.80469C47.8519 8.34635 48.5355 7.0931 49.2646 6.04492ZM64.9189 6.25C65.8076 3.7207 67.5166 2.46745 70.0459 2.49023C71.8232 2.51302 73.498 3.60677 75.0703 5.77148C76.5514 7.79948 77.7591 10.5452 78.6934 14.0088C80.7669 21.6878 80.9378 29.2757 79.2061 36.7725C78.2946 40.8057 76.1299 44.0299 72.7119 46.4453C69.5218 48.6784 65.8532 49.8633 61.7061 50C57.4906 50.1139 53.708 49.1227 50.3584 47.0264C46.6898 44.7021 44.1833 41.3981 42.8389 37.1143C41.7223 33.6279 41.1868 29.6973 41.2324 25.3223C41.278 21.1979 41.8021 17.2331 42.8047 13.4277C43.8529 9.6224 45.2201 6.61458 46.9062 4.4043C48.7292 2.01172 50.7002 0.895182 52.8193 1.05469C55.3258 1.25977 57.0804 2.45605 58.083 4.64355C59.4502 7.60579 59.5641 12.4707 58.4248 19.2383C57.9007 22.3145 57.8438 24.9007 58.2539 26.9971C58.6868 29.2301 59.5869 30.3581 60.9541 30.3809C63.3239 30.4036 64.3493 27.487 64.0303 21.6309C63.6429 14.2253 63.9391 9.09831 64.9189 6.25ZM120.563 6.04492C121.133 5.36133 121.68 4.83724 122.204 4.47266C122.797 4.01693 123.503 3.75488 124.323 3.68652C123.571 3.61816 122.808 3.78906 122.033 4.19922C121.464 4.51823 120.848 5.00814 120.188 5.66895C119.39 6.51204 118.422 7.74251 117.282 9.36035L116.633 10.3174L115.949 11.2744C115.448 11.9808 114.969 12.5732 114.514 13.0518C113.283 14.3506 111.973 15.057 110.583 15.1709C111.312 15.2393 112.087 15.1025 112.907 14.7607C113.568 14.4417 114.217 13.9974 114.855 13.4277C115.38 12.9492 115.915 12.3568 116.462 11.6504L117.146 10.6934L117.829 9.73633C118.9 8.16406 119.812 6.93359 120.563 6.04492ZM92.2969 11.4453C93.0488 9.89583 93.835 8.6084 94.6553 7.58301C95.8402 6.14746 97.082 5.36133 98.3809 5.22461C97.6061 5.17904 96.8542 5.36133 96.125 5.77148C95.4186 6.18164 94.8034 6.67155 94.2793 7.24121C93.3678 8.19824 92.502 9.50846 91.6816 11.1719C90.4056 13.8379 89.46 16.7773 88.8447 19.9902L89.2549 18.8965L89.665 17.8369C89.9157 17.1077 90.1777 16.3786 90.4512 15.6494C91.2031 13.8037 91.8184 12.4023 92.2969 11.4453ZM132.697 7.75391C134.839 12.0833 136.047 17.6546 136.32 24.4678C136.617 32.3747 136.206 38.4814 135.09 42.7881C133.814 47.6872 131.649 50.0911 128.596 50C126.796 49.9544 125.257 49.2025 123.981 47.7441C123.002 46.6276 122.102 45.0212 121.281 42.9248C121.031 42.2412 120.723 41.3639 120.358 40.293L120.153 39.6777L119.948 39.0625C119.812 38.6296 119.686 38.2536 119.572 37.9346C119.003 36.3395 118.456 35.4395 117.932 35.2344C117.362 35.0293 116.781 35.2458 116.188 35.8838C115.961 36.1344 115.687 36.4876 115.368 36.9434L114.924 37.5586L114.479 38.208C113.705 39.3701 113.021 40.2018 112.429 40.7031C111.54 41.4779 110.606 41.8538 109.626 41.8311C108.327 41.7855 107.211 41.2728 106.276 40.293C105.616 39.5638 104.989 38.5042 104.396 37.1143L104.089 36.2939L103.918 35.8838L103.781 35.5078C103.553 34.8698 103.371 34.4141 103.234 34.1406C102.824 33.2747 102.403 32.9215 101.97 33.0811C101.377 33.2861 100.739 34.2887 100.056 36.0889C99.9189 36.4307 99.7594 36.8522 99.5771 37.3535L99.3379 38.0371L99.0645 38.7549C98.6543 39.9398 98.2897 40.9082 97.9707 41.6602C96.9909 43.9388 95.9427 45.6136 94.8262 46.6846C93.3451 48.0518 91.6247 48.5303 89.665 48.1201C86.3154 47.4137 84.4469 43.9616 84.0596 37.7637C83.695 32.3177 84.4469 26.1654 86.3154 19.3066C89.2093 8.61979 93.0374 3.0485 97.7998 2.59277C99.5771 2.43327 101.298 3.03711 102.961 4.4043C104.283 5.47526 105.661 7.11589 107.097 9.32617C108.35 11.263 109.387 12.3112 110.207 12.4707C111.483 12.7441 112.998 11.5592 114.753 8.91602C116.804 5.88542 118.479 3.83464 119.777 2.76367C121.464 1.39648 123.343 0.849609 125.417 1.12305C128.243 1.48763 130.669 3.69792 132.697 7.75391ZM176.618 6.04492C177.188 5.36133 177.735 4.83724 178.259 4.47266C178.851 4.01693 179.558 3.75488 180.378 3.68652C179.626 3.61816 178.863 3.78906 178.088 4.19922C177.518 4.51823 176.903 5.00814 176.242 5.66895C175.445 6.51204 174.476 7.74251 173.337 9.36035L172.688 10.3174L172.004 11.2744C171.503 11.9808 171.024 12.5732 170.568 13.0518C169.338 14.3506 168.028 15.057 166.638 15.1709C167.367 15.2393 168.142 15.1025 168.962 14.7607C169.623 14.4417 170.272 13.9974 170.91 13.4277C171.434 12.9492 171.97 12.3568 172.517 11.6504L173.2 10.6934L173.884 9.73633C174.955 8.16406 175.866 6.93359 176.618 6.04492ZM148.352 11.4453C149.104 9.89583 149.89 8.6084 150.71 7.58301C151.895 6.14746 153.137 5.36133 154.436 5.22461C153.661 5.17904 152.909 5.36133 152.18 5.77148C151.473 6.18164 150.858 6.67155 150.334 7.24121C149.423 8.19824 148.557 9.50846 147.736 11.1719C146.46 13.8379 145.515 16.7773 144.899 19.9902L145.31 18.8965L145.72 17.8369C145.97 17.1077 146.232 16.3786 146.506 15.6494C147.258 13.8037 147.873 12.4023 148.352 11.4453ZM188.752 7.75391C190.894 12.0833 192.102 17.6546 192.375 24.4678C192.671 32.3747 192.261 38.4814 191.145 42.7881C189.868 47.6872 187.704 50.0911 184.65 50C182.85 49.9544 181.312 49.2025 180.036 47.7441C179.056 46.6276 178.156 45.0212 177.336 42.9248C177.085 42.2412 176.778 41.3639 176.413 40.293L176.208 39.6777L176.003 39.0625C175.866 38.6296 175.741 38.2536 175.627 37.9346C175.057 36.3395 174.51 35.4395 173.986 35.2344C173.417 35.0293 172.836 35.2458 172.243 35.8838C172.015 36.1344 171.742 36.4876 171.423 36.9434L170.979 37.5586L170.534 38.208C169.759 39.3701 169.076 40.2018 168.483 40.7031C167.595 41.4779 166.66 41.8538 165.681 41.8311C164.382 41.7855 163.265 41.2728 162.331 40.293C161.67 39.5638 161.044 38.5042 160.451 37.1143L160.144 36.2939L159.973 35.8838L159.836 35.5078C159.608 34.8698 159.426 34.4141 159.289 34.1406C158.879 33.2747 158.457 32.9215 158.024 33.0811C157.432 33.2861 156.794 34.2887 156.11 36.0889C155.974 36.4307 155.814 36.8522 155.632 37.3535L155.393 38.0371L155.119 38.7549C154.709 39.9398 154.344 40.9082 154.025 41.6602C153.046 43.9388 151.997 45.6136 150.881 46.6846C149.4 48.0518 147.679 48.5303 145.72 48.1201C142.37 47.4137 140.502 43.9616 140.114 37.7637C139.75 32.3177 140.502 26.1654 142.37 19.3066C145.264 8.61979 149.092 3.0485 153.854 2.59277C155.632 2.43327 157.352 3.03711 159.016 4.4043C160.337 5.47526 161.716 7.11589 163.151 9.32617C164.405 11.263 165.441 12.3112 166.262 12.4707C167.538 12.7441 169.053 11.5592 170.808 8.91602C172.858 5.88542 174.533 3.83464 175.832 2.76367C177.518 1.39648 179.398 0.849609 181.472 1.12305C184.297 1.48763 186.724 3.69792 188.752 7.75391ZM219.172 35.8496L219.685 35.6787C221.211 35.2002 222.567 34.8356 223.752 34.585C223.137 34.471 222.419 34.471 221.599 34.585C220.961 34.6533 220.254 34.8128 219.479 35.0635C219.206 35.1318 218.864 35.2572 218.454 35.4395L217.976 35.6104L217.497 35.8154C216.836 36.0433 216.153 36.2256 215.446 36.3623C216.107 36.499 216.836 36.4762 217.634 36.2939C217.907 36.2484 218.26 36.1572 218.693 36.0205L219.172 35.8496ZM206.457 5.22461C207.3 4.74609 208.246 4.37012 209.294 4.09668C210.16 3.84603 211.185 3.67513 212.37 3.58398C211.39 3.51562 210.342 3.58398 209.226 3.78906C208.132 3.99414 207.129 4.32454 206.218 4.78027C205.284 5.236 204.406 5.83984 203.586 6.5918C202.88 7.2526 202.23 8.11849 201.638 9.18945C200.703 10.8757 199.997 12.8695 199.519 15.1709C199.108 17.1533 198.892 19.2383 198.869 21.4258L199.074 19.8535C199.165 19.2611 199.257 18.7484 199.348 18.3154C199.553 17.2445 199.781 16.2305 200.031 15.2734C200.646 12.9036 201.376 10.9782 202.219 9.49707C202.766 8.51725 203.358 7.70833 203.996 7.07031C204.657 6.40951 205.477 5.79427 206.457 5.22461ZM215.856 22.2461L215.617 22.3486L215.07 22.5195L214.558 22.6904C214.877 22.8044 215.253 22.8499 215.686 22.8271C215.845 22.8271 216.039 22.8044 216.267 22.7588L216.54 22.7246L216.779 22.6904C217.098 22.6449 217.44 22.6107 217.805 22.5879C218.238 22.5879 218.602 22.6221 218.898 22.6904C218.693 22.3942 218.352 22.1891 217.873 22.0752C217.531 21.984 217.132 21.9727 216.677 22.041C216.517 22.0638 216.335 22.1094 216.13 22.1777L215.856 22.2461ZM214.387 33.5254C215.207 33.8444 216.21 33.776 217.395 33.3203C221.268 31.862 224.299 31.5544 226.486 32.3975C228.56 33.195 229.585 34.904 229.562 37.5244C229.54 39.484 228.594 41.4437 226.726 43.4033C224.925 45.249 222.624 46.7757 219.821 47.9834C216.95 49.2367 214.113 49.9089 211.311 50C208.234 50.0911 205.648 49.4531 203.552 48.0859C201.387 46.696 199.632 44.0186 198.288 40.0537C197.035 36.3623 196.306 32.1468 196.101 27.4072C195.918 22.6449 196.306 18.2812 197.263 14.3164C198.311 10.0098 199.883 6.86523 201.979 4.88281C204.258 2.74089 207.015 1.46484 210.251 1.05469C213.122 0.712891 215.982 1.05469 218.83 2.08008C221.542 3.08268 223.592 4.46126 224.982 6.21582C226.441 8.06152 226.771 9.88444 225.974 11.6846C225.518 12.7327 224.709 13.4961 223.547 13.9746C222.727 14.3164 221.553 14.5443 220.026 14.6582L219.104 14.7266L218.146 14.7607C217.395 14.8063 216.791 14.8633 216.335 14.9316C215.013 15.0911 214.034 15.4102 213.396 15.8887C212.963 16.2077 212.666 16.6406 212.507 17.1875C212.37 17.7116 212.382 18.2243 212.541 18.7256C212.974 19.9105 213.942 20.3092 215.446 19.9219C217.224 19.4661 218.75 19.5915 220.026 20.2979C221.28 20.9814 221.952 22.0296 222.043 23.4424C222.134 24.9691 221.644 26.2223 220.573 27.2021C219.388 28.2731 217.577 28.9225 215.139 29.1504C214.318 29.2415 213.703 29.5947 213.293 30.21C212.928 30.8024 212.837 31.429 213.02 32.0898C213.225 32.7962 213.68 33.2747 214.387 33.5254ZM253.625 24.7412C254.263 24.4906 254.844 24.1032 255.368 23.5791C256.394 22.4398 256.781 21.1637 256.53 19.751C256.188 21.141 255.63 22.2575 254.855 23.1006C254.012 24.0348 252.93 24.6387 251.608 24.9121C252.269 25.0488 252.941 24.9919 253.625 24.7412ZM250.139 17.666C249.706 18.1673 249.466 18.7826 249.421 19.5117C249.398 20.2409 249.603 20.8675 250.036 21.3916C250.446 21.9385 250.959 22.2233 251.574 22.2461C252.167 22.2689 252.691 22.0296 253.146 21.5283C253.602 21.027 253.841 20.4118 253.864 19.6826C253.887 18.9535 253.693 18.3154 253.283 17.7686C252.873 17.2445 252.36 16.971 251.745 16.9482C251.13 16.9255 250.594 17.1647 250.139 17.666ZM242.004 8.16406C243.189 6.79688 244.499 5.7487 245.935 5.01953C247.347 4.29036 248.977 3.84603 250.822 3.68652C250.025 3.61816 249.159 3.65234 248.225 3.78906C247.359 3.94857 246.516 4.21061 245.695 4.5752C244.191 5.21322 242.79 6.26139 241.491 7.71973C240.397 9.01855 239.475 10.5111 238.723 12.1973C238.016 13.8151 237.504 15.4671 237.185 17.1533C237.868 15.262 238.54 13.6784 239.201 12.4023C240.09 10.6934 241.024 9.2806 242.004 8.16406ZM265.861 31.4404C266.932 32.6253 267.878 33.9014 268.698 35.2686C269.951 37.4105 270.578 39.484 270.578 41.4893C270.578 43.2894 270.1 44.9072 269.143 46.3428C268.277 47.6416 267.149 48.6214 265.759 49.2822C264.392 49.943 263.047 50.1481 261.726 49.8975C258.604 49.305 256.28 47.5049 254.753 44.4971C254.502 43.973 254.229 43.3577 253.933 42.6514L253.591 41.7285L253.249 40.874C252.702 39.484 252.189 38.5156 251.711 37.9688C250.913 37.0573 250.31 36.875 249.899 37.4219C249.33 38.1738 248.988 40.3044 248.874 43.8135C248.806 45.7048 248.202 47.2087 247.062 48.3252C245.992 49.3506 244.681 49.8405 243.132 49.7949C241.491 49.7493 239.976 49.1227 238.586 47.915C237.014 46.5479 235.84 44.6566 235.065 42.2412C233.767 38.2536 233.094 33.8216 233.049 28.9453C233.003 23.9095 233.653 19.2839 234.997 15.0684C236.478 10.4427 238.62 6.9222 241.423 4.50684C244.567 1.77246 248.339 0.644531 252.736 1.12305C256.109 1.48763 258.923 2.58138 261.179 4.4043C263.229 6.09049 264.665 8.23242 265.485 10.8301C266.237 13.3138 266.34 15.9115 265.793 18.623C265.223 21.3574 264.038 23.8298 262.238 26.04C261.851 26.5186 261.771 26.9971 261.999 27.4756C262.159 27.8174 262.626 28.3529 263.4 29.082L263.674 29.3213L263.947 29.5605C264.175 29.7656 264.38 29.9479 264.562 30.1074C265.041 30.5632 265.474 31.0075 265.861 31.4404ZM307.424 35.8496C307.902 35.4167 308.233 34.9154 308.415 34.3457C308.597 33.7533 308.597 33.1836 308.415 32.6367C308.256 33.7305 307.777 34.6419 306.979 35.3711C306.387 35.9408 305.453 36.3737 304.177 36.6699C304.724 36.8066 305.293 36.8066 305.886 36.6699C306.455 36.5332 306.968 36.2598 307.424 35.8496ZM293.137 35.6104C293.501 35.5192 294.048 35.4395 294.777 35.3711C295.507 35.3255 296.076 35.2686 296.486 35.2002C295.939 35.0407 295.37 34.9268 294.777 34.8584C294.162 34.79 293.57 34.8242 293 34.9609C292.294 35.1204 291.747 35.4053 291.359 35.8154C290.904 36.2256 290.642 36.7611 290.573 37.4219C290.938 36.8522 291.302 36.4421 291.667 36.1914C292.054 35.9408 292.544 35.7471 293.137 35.6104ZM299.187 4.47266C299.893 4.26758 300.69 4.09668 301.579 3.95996L302.194 3.85742L302.81 3.75488L304.04 3.65234C302.399 3.51562 300.747 3.61816 299.084 3.95996C297.352 4.32454 295.803 4.95117 294.436 5.83984C292.886 6.84245 291.758 8.08431 291.052 9.56543L290.812 10.1465L290.573 10.7275L290.266 11.958L290.129 13.1885V14.4189C290.38 12.4593 290.835 10.9212 291.496 9.80469C292.294 8.4375 293.399 7.29818 294.812 6.38672C295.996 5.61198 297.455 4.97396 299.187 4.47266ZM304.177 16.2646C305.02 16.6976 306.717 17.1989 309.27 17.7686C312.938 18.5661 316.003 20.0472 318.464 22.2119C320.788 24.2171 322.36 26.6097 323.181 29.3896C323.978 32.1468 323.944 34.904 323.078 37.6611C322.167 40.5778 320.424 43.1527 317.849 45.3857C315.319 47.5732 312.198 48.986 308.483 49.624C305.065 50.2165 301.659 50.1025 298.264 49.2822C294.914 48.4391 292.259 47.0833 290.3 45.2148C288.181 43.2096 287.292 40.9424 287.634 38.4131C288.363 32.8304 292.727 31.1556 300.725 33.3887C302.342 33.8216 303.527 34.0267 304.279 34.0039C304.917 34.0039 305.362 33.7988 305.612 33.3887C306.182 32.5456 305.122 31.6911 302.434 30.8252C291.61 27.2249 286.654 21.2663 287.565 12.9492C287.998 9.02995 289.867 5.99935 293.171 3.85742C296.11 1.94336 299.722 0.986328 304.006 0.986328C308.996 0.963542 313.007 2.18262 316.037 4.64355C317.268 5.64616 318.168 6.7513 318.737 7.95898C319.284 9.09831 319.466 10.1579 319.284 11.1377C318.441 15.4671 314.34 16.7432 306.979 14.9658L306.364 14.8291L305.749 14.6924C305.293 14.6012 304.917 14.5443 304.621 14.5215C303.869 14.4531 303.436 14.6354 303.322 15.0684C303.186 15.5241 303.47 15.9229 304.177 16.2646ZM349.602 32.124C350.103 31.9873 350.593 31.7367 351.071 31.3721C352.028 30.6201 352.587 29.6973 352.746 28.6035C352.017 29.6061 351.333 30.3581 350.695 30.8594C349.898 31.4746 348.986 31.9076 347.961 32.1582C348.485 32.2949 349.032 32.2835 349.602 32.124ZM346.354 28.125C346.514 28.763 346.856 29.196 347.38 29.4238C347.904 29.6289 348.451 29.5605 349.021 29.2188C349.59 28.8542 350.012 28.3301 350.285 27.6465C350.559 26.9401 350.616 26.2679 350.456 25.6299C350.274 24.9919 349.921 24.5703 349.396 24.3652C348.872 24.1602 348.326 24.2285 347.756 24.5703C347.186 24.9121 346.765 25.4362 346.491 26.1426C346.218 26.8262 346.172 27.487 346.354 28.125ZM338.732 15.7861C339.963 13.8037 341.011 12.2201 341.877 11.0352C343.107 9.32617 344.304 7.86784 345.466 6.66016L345.979 6.14746C346.161 5.96517 346.332 5.81706 346.491 5.70312L347.038 5.22461L347.585 4.81445C348.542 4.17643 349.408 3.82324 350.183 3.75488C349.431 3.70931 348.508 3.97135 347.414 4.54102L346.799 4.91699L346.218 5.36133C346.058 5.47526 345.876 5.62337 345.671 5.80566L345.124 6.28418C343.916 7.37793 342.652 8.83626 341.33 10.6592C340.191 12.2542 339.177 13.8835 338.288 15.5469C337.331 17.347 336.522 19.0788 335.861 20.7422L337.297 18.2471C337.844 17.3128 338.322 16.4925 338.732 15.7861ZM340.954 7.27539C344.668 2.74089 348.007 0.701497 350.969 1.15723C353.931 1.63574 356.711 4.22201 359.309 8.91602C361.587 13.0859 363.387 18.2243 364.709 24.3311C365.985 30.21 366.498 35.4508 366.247 40.0537C365.974 44.9756 364.857 47.8809 362.897 48.7695C361.234 49.5215 359.571 49.5443 357.907 48.8379C356.654 48.291 355.253 47.2542 353.703 45.7275L352.78 44.7363L351.857 43.7793C351.105 42.959 350.536 42.3665 350.148 42.002C348.895 40.7943 347.847 40.1904 347.004 40.1904C346.184 40.1904 345.17 40.8285 343.962 42.1045C343.62 42.4691 343.073 43.0957 342.321 43.9844L341.433 45.0098C341.091 45.3971 340.772 45.7503 340.476 46.0693C338.949 47.6872 337.502 48.7923 336.135 49.3848C334.312 50.1823 332.432 50.2051 330.495 49.4531C327.92 48.4733 326.872 45.2832 327.351 39.8828C327.784 34.9609 329.322 29.3327 331.965 22.998C334.631 16.6178 337.627 11.377 340.954 7.27539ZM393.112 34.4482C393.819 34.3571 394.65 34.2887 395.607 34.2432C396.61 34.1976 397.442 34.1976 398.103 34.2432C396.758 33.7191 395.072 33.571 393.044 33.7988C392.155 33.9128 391.324 34.0723 390.549 34.2773L389.934 34.4482L389.318 34.6533C388.84 34.8128 388.441 34.9154 388.122 34.9609C388.441 35.0293 388.863 35.0293 389.387 34.9609L390.651 34.79L391.882 34.6191L393.112 34.4482ZM376.774 6.31836C377.139 5.68034 377.469 5.17904 377.766 4.81445C378.244 4.19922 378.711 3.83464 379.167 3.7207C378.871 3.7207 378.575 3.81185 378.278 3.99414C378.073 4.13086 377.823 4.32454 377.526 4.5752C377.116 4.98535 376.717 5.48665 376.33 6.0791C375.715 7.01335 375.168 8.12988 374.689 9.42871C373.846 11.7985 373.334 14.2253 373.151 16.709L373.664 14.9316L374.177 13.1543C374.587 11.8099 374.963 10.6478 375.305 9.66797C375.738 8.46029 376.228 7.34375 376.774 6.31836ZM385.593 28.1592C385.866 31.3493 386.949 32.7051 388.84 32.2266C393.374 31.11 397.02 31.0303 399.777 31.9873C402.785 33.0127 404.152 35.0977 403.879 38.2422C403.742 40.1562 402.557 42.0589 400.324 43.9502C398.228 45.7503 395.619 47.2087 392.497 48.3252C389.239 49.4873 386.105 50.0456 383.098 50C379.771 49.9316 377.071 49.1113 374.997 47.5391C372.787 45.8757 371.226 42.5033 370.314 37.4219C369.494 32.7962 369.335 27.6351 369.836 21.9385C370.337 16.2419 371.374 11.4795 372.946 7.65137C374.655 3.43587 376.672 1.25977 378.996 1.12305C382.095 0.940755 384.134 2.5472 385.114 5.94238C385.798 8.28939 386.037 12.0264 385.832 17.1533L385.764 18.6914L385.695 20.1953C385.627 21.4714 385.581 22.4398 385.559 23.1006C385.467 25.2653 385.479 26.9515 385.593 28.1592ZM430.676 35.8496L431.188 35.6787C432.715 35.2002 434.071 34.8356 435.256 34.585C434.641 34.471 433.923 34.471 433.103 34.585C432.465 34.6533 431.758 34.8128 430.983 35.0635C430.71 35.1318 430.368 35.2572 429.958 35.4395L429.479 35.6104L429.001 35.8154C428.34 36.0433 427.657 36.2256 426.95 36.3623C427.611 36.499 428.34 36.4762 429.138 36.2939C429.411 36.2484 429.764 36.1572 430.197 36.0205L430.676 35.8496ZM417.961 5.22461C418.804 4.74609 419.75 4.37012 420.798 4.09668C421.664 3.84603 422.689 3.67513 423.874 3.58398C422.894 3.51562 421.846 3.58398 420.729 3.78906C419.636 3.99414 418.633 4.32454 417.722 4.78027C416.787 5.236 415.91 5.83984 415.09 6.5918C414.383 7.2526 413.734 8.11849 413.142 9.18945C412.207 10.8757 411.501 12.8695 411.022 15.1709C410.612 17.1533 410.396 19.2383 410.373 21.4258L410.578 19.8535C410.669 19.2611 410.76 18.7484 410.852 18.3154C411.057 17.2445 411.285 16.2305 411.535 15.2734C412.15 12.9036 412.88 10.9782 413.723 9.49707C414.27 8.51725 414.862 7.70833 415.5 7.07031C416.161 6.40951 416.981 5.79427 417.961 5.22461ZM427.36 22.2461L427.121 22.3486L426.574 22.5195L426.062 22.6904C426.381 22.8044 426.757 22.8499 427.189 22.8271C427.349 22.8271 427.543 22.8044 427.771 22.7588L428.044 22.7246L428.283 22.6904C428.602 22.6449 428.944 22.6107 429.309 22.5879C429.742 22.5879 430.106 22.6221 430.402 22.6904C430.197 22.3942 429.855 22.1891 429.377 22.0752C429.035 21.984 428.636 21.9727 428.181 22.041C428.021 22.0638 427.839 22.1094 427.634 22.1777L427.36 22.2461ZM425.891 33.5254C426.711 33.8444 427.714 33.776 428.898 33.3203C432.772 31.862 435.803 31.5544 437.99 32.3975C440.064 33.195 441.089 34.904 441.066 37.5244C441.044 39.484 440.098 41.4437 438.229 43.4033C436.429 45.249 434.128 46.7757 431.325 47.9834C428.454 49.2367 425.617 49.9089 422.814 50C419.738 50.0911 417.152 49.4531 415.056 48.0859C412.891 46.696 411.136 44.0186 409.792 40.0537C408.539 36.3623 407.81 32.1468 407.604 27.4072C407.422 22.6449 407.81 18.2812 408.767 14.3164C409.815 10.0098 411.387 6.86523 413.483 4.88281C415.762 2.74089 418.519 1.46484 421.755 1.05469C424.626 0.712891 427.486 1.05469 430.334 2.08008C433.046 3.08268 435.096 4.46126 436.486 6.21582C437.945 8.06152 438.275 9.88444 437.478 11.6846C437.022 12.7327 436.213 13.4961 435.051 13.9746C434.23 14.3164 433.057 14.5443 431.53 14.6582L430.607 14.7266L429.65 14.7607C428.898 14.8063 428.295 14.8633 427.839 14.9316C426.517 15.0911 425.537 15.4102 424.899 15.8887C424.466 16.2077 424.17 16.6406 424.011 17.1875C423.874 17.7116 423.885 18.2243 424.045 18.7256C424.478 19.9105 425.446 20.3092 426.95 19.9219C428.728 19.4661 430.254 19.5915 431.53 20.2979C432.784 20.9814 433.456 22.0296 433.547 23.4424C433.638 24.9691 433.148 26.2223 432.077 27.2021C430.892 28.2731 429.081 28.9225 426.643 29.1504C425.822 29.2415 425.207 29.5947 424.797 30.21C424.432 30.8024 424.341 31.429 424.523 32.0898C424.729 32.7962 425.184 33.2747 425.891 33.5254Z" fill="white" fill-opacity="0.5"/>
<defs>
<linearGradient id="paint0_linear_3_20" x1="-17.168" y1="-46.8017" x2="397.5" y2="140.911" gradientUnits="userSpaceOnUse">
<stop stop-color="white"/>
<stop offset="1" stop-color="#8E8E9C"/>
</linearGradient>
</defs>
</svg>
