
<svg xmlns="http://www.w3.org/2000/svg" viewBox="0 0 388.212 51.233" xmlns:bx="https://boxy-svg.com" width="388.212px" height="51.233px"><defs/><g style=""><path fill-rule="evenodd" clip-rule="evenodd" d="M 43.678 14.667 L 24.066 48.497 C 23.481 49.503 22.404 50.122 21.238 50.122 C 20.071 50.122 18.994 49.503 18.41 48.497 L 12.969 39.148 C 12.384 38.139 12.384 36.897 12.969 35.889 L 32.566 2.035 C 33.15 1.029 34.228 0.41 35.394 0.41 C 36.56 0.41 37.638 1.029 38.222 2.035 L 43.668 11.408 C 44.255 12.415 44.259 13.656 43.678 14.667 Z M 18.827 17.907 C 19.406 16.9 19.403 15.662 18.818 14.657 C 18.234 13.653 17.158 13.034 15.993 13.034 L 3.579 13.034 C 2.415 13.037 1.341 13.656 0.759 14.66 C 0.176 15.664 0.174 16.901 0.752 17.907 L 6.95 28.692 C 7.531 29.705 8.613 30.33 9.784 30.33 C 10.956 30.33 12.037 29.705 12.619 28.692 L 18.827 17.907 Z" fill="#873EFE"/><path d="M 388.212 29.822 C 388.212 31.78 387.928 33.58 387.36 35.222 C 386.791 36.833 385.97 38.223 384.896 39.391 C 383.823 40.528 382.528 41.412 381.012 42.044 C 379.528 42.675 377.854 42.991 375.991 42.991 C 374.16 42.991 372.486 42.675 370.97 42.044 C 369.486 41.412 368.207 40.528 367.133 39.391 C 366.06 38.223 365.223 36.833 364.623 35.222 C 364.023 33.58 363.723 31.78 363.723 29.822 C 363.723 27.865 364.023 26.08 364.623 24.47 C 365.254 22.859 366.107 21.486 367.181 20.349 C 368.286 19.212 369.581 18.328 371.065 17.696 C 372.581 17.065 374.223 16.749 375.991 16.749 C 377.791 16.749 379.433 17.065 380.917 17.696 C 382.433 18.328 383.728 19.212 384.802 20.349 C 385.875 21.486 386.712 22.859 387.312 24.47 C 387.912 26.08 388.212 27.865 388.212 29.822 Z M 381.012 29.822 C 381.012 27.644 380.57 25.938 379.686 24.707 C 378.833 23.444 377.602 22.812 375.991 22.812 C 374.381 22.812 373.133 23.444 372.249 24.707 C 371.365 25.938 370.923 27.644 370.923 29.822 C 370.923 32.001 371.365 33.738 372.249 35.033 C 373.133 36.296 374.381 36.928 375.991 36.928 C 377.602 36.928 378.833 36.296 379.686 35.033 C 380.57 33.738 381.012 32.001 381.012 29.822 Z" fill="white"/><path d="M 344.548 11.207 L 351.606 10.07 L 351.606 17.412 L 360.085 17.412 L 360.085 23.286 L 351.606 23.286 L 351.606 32.049 C 351.606 33.533 351.858 34.717 352.364 35.602 C 352.9 36.486 353.958 36.928 355.537 36.928 C 356.295 36.928 357.069 36.865 357.858 36.738 C 358.679 36.581 359.421 36.375 360.085 36.123 L 361.079 41.617 C 360.227 41.965 359.279 42.265 358.237 42.517 C 357.195 42.77 355.916 42.896 354.4 42.896 C 352.474 42.896 350.879 42.644 349.616 42.138 C 348.353 41.602 347.343 40.875 346.585 39.96 C 345.827 39.012 345.29 37.875 344.974 36.549 C 344.69 35.222 344.548 33.754 344.548 32.144 L 344.548 11.207 Z" fill="white"/><path d="M 332.16 30.059 C 332.16 27.88 331.671 26.143 330.692 24.849 C 329.713 23.522 328.26 22.859 326.334 22.859 C 325.702 22.859 325.118 22.891 324.581 22.954 C 324.044 22.986 323.602 23.033 323.255 23.096 L 323.255 35.838 C 323.697 36.123 324.266 36.36 324.96 36.549 C 325.687 36.738 326.413 36.833 327.139 36.833 C 330.487 36.833 332.16 34.575 332.16 30.059 Z M 339.36 29.87 C 339.36 31.796 339.123 33.549 338.65 35.128 C 338.176 36.707 337.481 38.065 336.566 39.202 C 335.65 40.338 334.513 41.223 333.155 41.854 C 331.797 42.486 330.234 42.802 328.466 42.802 C 327.487 42.802 326.571 42.707 325.718 42.517 C 324.866 42.328 324.044 42.06 323.255 41.712 L 323.255 51.091 L 316.197 51.091 L 316.197 18.265 C 316.829 18.075 317.555 17.901 318.376 17.743 C 319.197 17.554 320.05 17.396 320.934 17.27 C 321.85 17.143 322.766 17.049 323.681 16.986 C 324.629 16.891 325.529 16.843 326.381 16.843 C 328.434 16.843 330.266 17.159 331.876 17.791 C 333.487 18.391 334.844 19.259 335.95 20.396 C 337.055 21.501 337.892 22.859 338.46 24.47 C 339.06 26.08 339.36 27.88 339.36 29.87 Z" fill="white"/><path d="M 312.414 17.412 C 310.993 22.212 309.508 26.712 307.961 30.912 C 306.414 35.112 304.724 39.186 302.893 43.133 C 302.229 44.554 301.566 45.754 300.903 46.733 C 300.24 47.744 299.514 48.565 298.724 49.196 C 297.935 49.86 297.035 50.333 296.024 50.617 C 295.045 50.933 293.893 51.091 292.566 51.091 C 291.461 51.091 290.435 50.981 289.487 50.76 C 288.571 50.57 287.814 50.349 287.214 50.096 L 288.445 44.46 C 289.171 44.712 289.819 44.886 290.387 44.981 C 290.956 45.075 291.556 45.123 292.187 45.123 C 293.45 45.123 294.414 44.775 295.077 44.081 C 295.771 43.417 296.356 42.486 296.829 41.286 C 295.219 38.128 293.608 34.591 291.998 30.675 C 290.387 26.728 288.871 22.307 287.45 17.412 L 294.935 17.412 C 295.25 18.644 295.614 19.986 296.024 21.438 C 296.466 22.859 296.924 24.312 297.398 25.796 C 297.871 27.249 298.345 28.67 298.819 30.059 C 299.324 31.449 299.798 32.712 300.24 33.849 C 300.65 32.712 301.077 31.449 301.519 30.059 C 301.961 28.67 302.387 27.249 302.798 25.796 C 303.24 24.312 303.65 22.859 304.029 21.438 C 304.44 19.986 304.803 18.644 305.119 17.412 L 312.414 17.412 Z" fill="white"/><path d="M 283.844 23.665 C 283.213 23.507 282.471 23.349 281.618 23.191 C 280.766 23.001 279.85 22.907 278.871 22.907 C 278.429 22.907 277.892 22.954 277.26 23.049 C 276.66 23.112 276.202 23.191 275.887 23.286 L 275.887 42.328 L 268.829 42.328 L 268.829 18.738 C 270.092 18.296 271.576 17.886 273.281 17.507 C 275.018 17.096 276.944 16.891 279.06 16.891 C 279.439 16.891 279.897 16.922 280.434 16.986 C 280.971 17.017 281.508 17.08 282.044 17.175 C 282.581 17.238 283.118 17.333 283.655 17.459 C 284.192 17.554 284.65 17.68 285.029 17.838 L 283.844 23.665 Z" fill="white"/><path d="M 253.555 42.991 C 248.218 42.991 244.145 41.507 241.334 38.539 C 238.555 35.57 237.166 31.354 237.166 25.891 C 237.166 23.175 237.592 20.759 238.445 18.644 C 239.297 16.496 240.466 14.696 241.95 13.244 C 243.434 11.759 245.203 10.638 247.255 9.88 C 249.308 9.122 251.534 8.744 253.934 8.744 C 255.324 8.744 256.587 8.854 257.724 9.075 C 258.861 9.265 259.855 9.501 260.708 9.786 C 261.561 10.038 262.271 10.307 262.84 10.591 C 263.408 10.875 263.818 11.096 264.071 11.254 L 261.94 17.222 C 260.929 16.686 259.745 16.228 258.387 15.849 C 257.061 15.47 255.545 15.28 253.84 15.28 C 252.703 15.28 251.582 15.47 250.476 15.849 C 249.403 16.228 248.44 16.844 247.587 17.696 C 246.766 18.517 246.103 19.591 245.597 20.917 C 245.092 22.244 244.84 23.854 244.84 25.749 C 244.84 27.265 244.997 28.686 245.313 30.012 C 245.661 31.307 246.197 32.428 246.924 33.375 C 247.682 34.322 248.661 35.08 249.861 35.649 C 251.061 36.186 252.513 36.454 254.218 36.454 C 255.292 36.454 256.255 36.391 257.108 36.265 C 257.961 36.139 258.718 35.996 259.382 35.839 C 260.045 35.649 260.629 35.444 261.134 35.222 C 261.64 35.001 262.097 34.796 262.508 34.607 L 264.545 40.528 C 263.503 41.16 262.034 41.728 260.14 42.233 C 258.245 42.739 256.05 42.991 253.555 42.991 Z" fill="white"/><path d="M 210.073 37.402 C 210.767 37.402 211.43 37.386 212.062 37.354 C 212.694 37.323 213.199 37.275 213.578 37.212 L 213.578 31.859 C 213.294 31.796 212.867 31.733 212.299 31.67 C 211.73 31.607 211.209 31.575 210.736 31.575 C 210.073 31.575 209.441 31.622 208.841 31.717 C 208.273 31.78 207.767 31.922 207.325 32.144 C 206.883 32.365 206.536 32.665 206.283 33.044 C 206.03 33.422 205.904 33.896 205.904 34.465 C 205.904 35.57 206.267 36.344 206.994 36.786 C 207.752 37.196 208.778 37.402 210.073 37.402 Z M 209.504 16.749 C 211.588 16.749 213.325 16.986 214.715 17.459 C 216.104 17.933 217.209 18.612 218.03 19.496 C 218.883 20.38 219.483 21.454 219.83 22.717 C 220.178 23.98 220.352 25.386 220.352 26.933 L 220.352 41.617 C 219.341 41.838 217.936 42.091 216.136 42.375 C 214.336 42.691 212.157 42.849 209.599 42.849 C 207.988 42.849 206.52 42.707 205.194 42.423 C 203.899 42.138 202.778 41.681 201.83 41.049 C 200.883 40.386 200.157 39.533 199.652 38.491 C 199.146 37.449 198.894 36.17 198.894 34.654 C 198.894 33.201 199.178 31.97 199.746 30.959 C 200.346 29.949 201.136 29.144 202.115 28.544 C 203.094 27.944 204.215 27.517 205.478 27.265 C 206.741 26.98 208.052 26.838 209.409 26.838 C 210.325 26.838 211.13 26.886 211.825 26.98 C 212.552 27.044 213.136 27.138 213.578 27.265 L 213.578 26.601 C 213.578 25.401 213.215 24.438 212.488 23.712 C 211.762 22.986 210.499 22.622 208.699 22.622 C 207.499 22.622 206.315 22.717 205.146 22.907 C 203.978 23.065 202.967 23.301 202.115 23.617 L 201.215 17.933 C 201.625 17.807 202.13 17.68 202.73 17.554 C 203.362 17.396 204.041 17.27 204.767 17.175 C 205.494 17.049 206.252 16.954 207.041 16.891 C 207.862 16.796 208.683 16.749 209.504 16.749 Z" fill="white"/><path d="M 178.442 29.065 C 178.442 33.012 180.037 34.986 183.226 34.986 C 183.953 34.986 184.632 34.891 185.263 34.701 C 185.895 34.512 186.432 34.291 186.874 34.038 L 186.874 22.765 C 186.526 22.701 186.116 22.654 185.642 22.622 C 185.169 22.559 184.616 22.528 183.984 22.528 C 182.121 22.528 180.732 23.143 179.816 24.375 C 178.9 25.607 178.442 27.17 178.442 29.065 Z M 193.932 39.202 C 193.932 43.275 192.89 46.291 190.805 48.249 C 188.753 50.238 185.563 51.233 181.237 51.233 C 179.721 51.233 178.205 51.091 176.69 50.807 C 175.174 50.554 173.769 50.207 172.474 49.765 L 173.705 43.844 C 174.811 44.286 175.963 44.633 177.163 44.886 C 178.395 45.138 179.784 45.265 181.332 45.265 C 183.353 45.265 184.774 44.823 185.595 43.938 C 186.448 43.054 186.874 41.917 186.874 40.528 L 186.874 39.628 C 186.116 39.975 185.326 40.244 184.505 40.433 C 183.716 40.591 182.848 40.67 181.9 40.67 C 178.458 40.67 175.821 39.66 173.99 37.638 C 172.158 35.586 171.242 32.728 171.242 29.065 C 171.242 27.233 171.526 25.575 172.095 24.091 C 172.663 22.575 173.484 21.28 174.558 20.207 C 175.663 19.133 177.005 18.312 178.584 17.743 C 180.163 17.143 181.948 16.843 183.937 16.843 C 184.79 16.843 185.658 16.891 186.542 16.986 C 187.458 17.049 188.358 17.143 189.242 17.27 C 190.126 17.396 190.963 17.554 191.753 17.743 C 192.574 17.901 193.3 18.075 193.932 18.265 L 193.932 39.202 Z" fill="white"/><path d="M 155.765 37.402 C 156.46 37.402 157.123 37.386 157.755 37.354 C 158.387 37.323 158.892 37.275 159.271 37.212 L 159.271 31.859 C 158.987 31.796 158.56 31.733 157.992 31.67 C 157.423 31.607 156.902 31.575 156.429 31.575 C 155.765 31.575 155.134 31.622 154.534 31.717 C 153.965 31.78 153.46 31.922 153.018 32.144 C 152.576 32.365 152.229 32.665 151.976 33.044 C 151.723 33.422 151.597 33.896 151.597 34.465 C 151.597 35.57 151.96 36.344 152.687 36.786 C 153.444 37.196 154.471 37.402 155.765 37.402 Z M 155.197 16.749 C 157.281 16.749 159.018 16.986 160.408 17.459 C 161.797 17.933 162.902 18.612 163.723 19.496 C 164.576 20.38 165.176 21.454 165.523 22.717 C 165.871 23.98 166.044 25.386 166.044 26.933 L 166.044 41.617 C 165.034 41.838 163.629 42.091 161.829 42.375 C 160.029 42.691 157.85 42.849 155.292 42.849 C 153.681 42.849 152.213 42.707 150.887 42.423 C 149.592 42.138 148.471 41.681 147.523 41.049 C 146.576 40.386 145.85 39.533 145.344 38.491 C 144.839 37.449 144.587 36.17 144.587 34.654 C 144.587 33.201 144.871 31.97 145.439 30.959 C 146.039 29.949 146.829 29.144 147.808 28.544 C 148.787 27.944 149.908 27.517 151.171 27.265 C 152.434 26.98 153.744 26.838 155.102 26.838 C 156.018 26.838 156.823 26.886 157.518 26.98 C 158.244 27.044 158.829 27.138 159.271 27.265 L 159.271 26.601 C 159.271 25.401 158.908 24.438 158.181 23.712 C 157.455 22.986 156.192 22.622 154.392 22.622 C 153.192 22.622 152.008 22.717 150.839 22.907 C 149.671 23.065 148.66 23.301 147.808 23.617 L 146.908 17.933 C 147.318 17.807 147.823 17.68 148.423 17.554 C 149.055 17.396 149.734 17.27 150.46 17.175 C 151.187 17.049 151.944 16.954 152.734 16.891 C 153.555 16.796 154.376 16.749 155.197 16.749 Z" fill="white"/><path d="M 125.885 11.207 L 132.943 10.07 L 132.943 17.412 L 141.422 17.412 L 141.422 23.286 L 132.943 23.286 L 132.943 32.049 C 132.943 33.533 133.196 34.717 133.701 35.602 C 134.238 36.486 135.296 36.928 136.875 36.928 C 137.633 36.928 138.406 36.865 139.196 36.738 C 140.017 36.581 140.759 36.375 141.422 36.123 L 142.417 41.617 C 141.564 41.965 140.617 42.265 139.575 42.517 C 138.533 42.77 137.254 42.896 135.738 42.896 C 133.812 42.896 132.217 42.644 130.954 42.138 C 129.69 41.602 128.68 40.875 127.922 39.96 C 127.164 39.012 126.627 37.875 126.312 36.549 C 126.027 35.222 125.885 33.754 125.885 32.144 L 125.885 11.207 Z" fill="white"/><path d="M 109.461 37.402 C 110.156 37.402 110.819 37.386 111.45 37.354 C 112.082 37.323 112.587 37.275 112.966 37.212 L 112.966 31.859 C 112.682 31.796 112.256 31.733 111.687 31.67 C 111.119 31.607 110.598 31.575 110.124 31.575 C 109.461 31.575 108.829 31.622 108.229 31.717 C 107.661 31.78 107.156 31.922 106.714 32.144 C 106.271 32.365 105.924 32.665 105.671 33.044 C 105.419 33.422 105.292 33.896 105.292 34.465 C 105.292 35.57 105.656 36.344 106.382 36.786 C 107.14 37.196 108.166 37.402 109.461 37.402 Z M 108.892 16.749 C 110.977 16.749 112.714 16.986 114.103 17.459 C 115.492 17.933 116.598 18.612 117.419 19.496 C 118.271 20.38 118.871 21.454 119.219 22.717 C 119.566 23.98 119.74 25.386 119.74 26.933 L 119.74 41.617 C 118.729 41.838 117.324 42.091 115.524 42.375 C 113.724 42.691 111.545 42.849 108.987 42.849 C 107.377 42.849 105.908 42.707 104.582 42.423 C 103.287 42.138 102.166 41.681 101.219 41.049 C 100.271 40.386 99.545 39.533 99.04 38.491 C 98.535 37.449 98.282 36.17 98.282 34.654 C 98.282 33.201 98.566 31.97 99.135 30.959 C 99.735 29.949 100.524 29.144 101.503 28.544 C 102.482 27.944 103.603 27.517 104.866 27.265 C 106.129 26.98 107.44 26.838 108.798 26.838 C 109.714 26.838 110.519 26.886 111.214 26.98 C 111.94 27.044 112.524 27.138 112.966 27.265 L 112.966 26.601 C 112.966 25.401 112.603 24.438 111.877 23.712 C 111.15 22.986 109.887 22.622 108.087 22.622 C 106.887 22.622 105.703 22.717 104.535 22.907 C 103.366 23.065 102.356 23.301 101.503 23.617 L 100.603 17.933 C 101.014 17.807 101.519 17.68 102.119 17.554 C 102.75 17.396 103.429 17.27 104.156 17.175 C 104.882 17.049 105.64 16.954 106.429 16.891 C 107.25 16.796 108.071 16.749 108.892 16.749 Z" fill="white"/><path d="M 77.929 42.328 C 76.635 39.581 75.356 36.723 74.093 33.754 C 72.829 30.786 71.629 27.849 70.493 24.944 C 69.356 22.038 68.298 19.259 67.319 16.607 C 66.372 13.954 65.551 11.586 64.856 9.501 L 73.003 9.501 C 73.635 11.396 74.314 13.449 75.04 15.659 C 75.798 17.838 76.556 20.017 77.314 22.196 C 78.103 24.375 78.861 26.459 79.587 28.449 C 80.314 30.438 80.993 32.159 81.624 33.612 C 82.224 32.159 82.887 30.438 83.614 28.449 C 84.372 26.459 85.129 24.375 85.887 22.196 C 86.677 20.017 87.435 17.838 88.161 15.659 C 88.919 13.449 89.614 11.396 90.245 9.501 L 98.108 9.501 C 97.382 11.586 96.545 13.954 95.598 16.607 C 94.651 19.259 93.608 22.038 92.472 24.944 C 91.335 27.849 90.135 30.786 88.872 33.754 C 87.608 36.723 86.329 39.581 85.035 42.328 L 77.929 42.328 Z" fill="white"/></g></svg>